<svg width="227" height="234" viewBox="0 0 227 234" fill="none" xmlns="http://www.w3.org/2000/svg">
<g clip-path="url(#clip0_8_90)">
<path d="M161.044 63.6967L163.192 63.2937L165.386 62.8841C166.147 62.7469 166.953 62.6257 167.683 62.4625C169.491 62.0582 171.306 61.9283 173.098 61.568C174.455 61.4815 175.823 61.1682 177.193 60.9576L179.835 60.5948C180.365 60.5132 180.905 60.4328 181.434 60.3512L184.694 59.8247L189.581 59.0006L192.509 50.8789C192.89 49.8125 193.238 48.7426 193.597 47.6739C193.647 47.5081 193.676 47.3401 193.716 47.1732C193.753 47.0288 193.781 46.872 193.827 46.7514C194.265 45.6796 194.569 44.5938 194.962 43.5286L196.021 40.7084C196.193 40.2474 196.376 39.7875 196.524 39.3355C197.048 37.7594 197.639 36.2017 198.239 34.6564C198.438 34.1526 198.573 33.6079 198.762 33.0917L200.73 27.5952L200.733 27.5614L200.644 27.552L200.621 27.5497C200.621 27.5497 200.621 27.5497 200.523 27.5166L200.106 27.3819L198.439 26.8543L195.439 25.8456C194.377 25.4839 193.35 25.1144 192.246 24.8395C191.805 24.725 191.295 24.5008 190.802 24.3354C189.346 23.8526 187.942 23.2955 186.411 22.8734C185.408 22.5977 184.369 22.2384 183.36 21.9164C182.34 21.5932 181.318 21.2814 180.312 20.9368C178.55 20.331 176.761 19.7793 175.002 19.151C173.964 18.7804 172.875 18.4615 171.81 18.1336C171.119 17.9133 170.474 17.6863 169.809 17.4344C168.969 17.1187 168.046 16.8399 167.172 16.532C166.21 16.1921 165.195 15.9265 164.273 15.5337C164.197 15.503 164.087 15.4687 163.998 15.4481C162.266 15.0049 160.61 14.3645 158.922 13.8121C157.802 13.4671 156.682 13.1222 155.562 12.7772L152.055 11.6357L150.506 11.1661C150.416 11.1567 150.349 11.1497 150.316 11.1462L150.35 11.2524C150.35 11.2524 150.389 11.3135 150.406 11.3723L151.286 16.3678L151.426 17.3289L151.604 18.465C151.625 18.5926 151.667 18.7339 151.666 18.8479C151.734 19.847 151.932 20.8941 152.087 21.9252C152.253 23.0714 152.409 24.1939 152.565 25.3277C152.591 25.5129 152.66 25.7254 152.696 25.923C152.765 26.2495 152.856 26.5783 152.913 26.9036C153.195 28.6778 153.377 30.4415 153.728 32.2115C153.724 32.2454 153.743 32.2815 153.741 32.3041C153.794 33.5527 154.124 34.9783 154.208 36.2529C154.26 37.0681 154.425 37.8949 154.566 38.7307C154.7 39.5201 154.811 40.3185 154.924 41.0944C154.998 41.6951 155.018 42.2674 155.216 42.8811C155.268 43.0348 155.29 43.3791 155.31 43.6207C155.413 44.7148 155.564 45.7798 155.893 46.772C155.937 46.8906 155.964 47.0758 155.994 47.2272C156.295 49.0376 156.633 50.8177 156.993 52.6115C157.149 53.4145 157.241 54.2795 157.337 55.1106C157.413 55.8027 157.48 56.4825 157.546 57.1622L157.819 59.8021C157.863 60.2515 157.924 60.657 158.059 61.1044C158.168 61.4807 158.256 61.946 158.347 62.3775C158.37 62.4939 158.395 62.6904 158.39 62.7355C158.315 63.0242 158.391 63.6136 158.362 63.9984C158.339 64.4521 158.257 64.6945 158.063 64.5944C157.754 64.4138 157.478 63.8948 157.202 62.7255C157.113 62.3742 157.002 62.0205 156.904 61.7594C156.462 60.664 156.14 59.1594 155.888 57.7532C155.67 56.5673 155.417 55.3891 155.235 54.1841C154.974 52.6402 154.702 51.0951 154.441 49.5512L153.884 46.1517C153.542 44.0748 153.155 41.9931 152.878 39.9458C152.688 38.489 152.4 36.9879 152.286 35.5619C152.253 35.1024 152.141 34.5433 152.057 34.0328L151.753 32.0282C151.677 31.5527 151.579 31.0749 151.48 30.6084C151.34 29.9781 151.23 29.3964 151.175 28.7178C151.131 28.1544 150.963 27.4755 150.857 26.8486C150.799 26.5346 150.698 26.1934 150.67 25.9168C150.526 24.4421 150.248 22.9648 150.005 21.4683C149.855 20.4948 149.707 19.51 149.549 18.5128L148.599 12.6434C148.496 12.0967 148.394 11.55 148.303 11.0045C148.149 10.0762 147.995 9.1478 147.84 8.23071C148.902 8.58111 149.986 8.94513 151.013 9.31459C151.733 9.5836 152.381 9.77672 153.082 10.0095L156.507 11.188C157.229 11.4345 157.971 11.7058 158.686 11.9172C159.874 12.2579 161.025 12.629 162.172 13.0451C162.325 13.0954 162.479 13.1456 162.633 13.1845L163.683 13.5563C163.802 13.603 163.91 13.6599 164.008 13.693C165.374 14.0749 166.668 14.5978 168.006 15.0225L170.578 15.8954L172.232 16.4444L174.059 17.0797L177.775 18.2773C177.963 18.3311 178.151 18.3735 178.327 18.4261L183.773 20.2034C185.266 20.6671 186.758 21.1421 188.251 21.6058C189.29 21.9652 190.328 22.3358 191.378 22.6963C191.958 22.8937 192.531 23.1588 193.156 23.2581C193.368 23.2803 193.707 23.4069 193.98 23.5038C194.788 23.7935 195.583 24.1045 196.405 24.3728C196.996 24.5713 197.626 24.7282 198.232 24.8941L198.961 25.0729L201.095 25.6947L203.159 26.3321L201.879 29.9731C201.204 31.9211 200.551 33.8714 199.843 35.8045C199.527 36.6725 199.199 37.5506 198.882 38.4298L197.525 42.0627C197.397 42.4257 197.29 42.8023 197.185 43.1676C196.921 44.0866 196.602 44.9884 196.258 45.9104C195.812 47.1639 195.354 48.4275 194.897 49.6799L194.45 50.8419C193.829 52.4763 193.208 54.1107 192.588 55.745C192.268 56.5441 191.937 57.3421 191.617 58.1411C191.337 58.8873 191.044 59.6436 190.763 60.3898L190.51 60.4318L187.853 60.8273C187.474 60.8789 187.105 60.9431 186.726 60.9947C186.439 61.0332 186.14 61.0705 185.89 61.0786C185.082 61.1197 184.233 61.2249 183.381 61.364L177.714 62.2779L173.535 63.0505C172.692 63.2133 171.877 63.3108 171.063 63.4083C170.628 63.4541 170.178 63.5326 169.74 63.6122C168.597 63.8236 167.451 64.0576 166.309 64.155C165.852 64.1872 165.419 64.2218 164.973 64.2551C164.481 64.3064 163.943 64.3642 163.446 64.4606C161.529 64.8193 159.973 64.8621 158.48 64.8431C157.733 64.8336 157.843 64.5372 158.589 64.33C159.174 64.1515 159.757 63.9843 160.341 63.8172C160.573 63.7616 160.817 63.6959 161.05 63.6403L161.072 63.6426L161.044 63.6967Z" fill="#2F1F49"/>
<path d="M211.17 87.6993L208.836 87.1592L206.458 86.603C205.629 86.4025 204.77 86.1646 203.96 86.0002C201.974 85.599 200.081 84.9453 198.11 84.5115C196.711 84.012 195.19 83.7164 193.711 83.334L190.882 82.5369C190.309 82.3858 189.735 82.2347 189.163 82.0724L185.654 81.1701L170.493 77.364C169.3 77.0684 168.092 76.8055 166.898 76.5212C166.71 76.4788 166.53 76.4714 166.34 76.4402C166.183 76.4238 166.004 76.4051 165.862 76.3561C165.257 76.1789 164.649 76.0356 164.052 75.8934L162.735 75.585L161.124 75.1773L158.973 74.6107C158.853 74.3473 158.72 74.094 158.578 73.8282L158.435 73.5624C158.514 73.4566 158.581 73.3496 158.65 73.2314C158.775 73.005 158.889 72.7774 159.003 72.5498C160.906 72.2238 162.807 71.909 164.72 71.5842C165.307 71.4972 165.89 71.33 166.489 71.2328L173.563 69.9528L177.742 69.1915L181.162 68.6362C182.372 68.4431 183.567 68.2714 184.774 67.9869C185.262 67.8668 185.878 67.8284 186.431 67.7378C188.101 67.4674 189.739 67.2849 191.442 66.9153C192.554 66.6778 193.739 66.4936 194.893 66.2834L195.113 66.2379L195.147 66.2414L195.154 66.1737L195.376 65.5582L195.831 64.3172C196.55 62.3852 197.258 60.452 197.977 58.52C198.41 57.3906 198.816 56.2013 199.218 55.0346C199.476 54.2861 199.752 53.585 200.054 52.8524C200.431 51.9339 200.772 50.9317 201.143 49.9669C201.545 48.9142 201.885 47.8092 202.34 46.7962C202.383 46.7094 202.418 46.5877 202.45 46.4997C203.017 44.609 203.768 42.8058 204.434 40.9593C204.853 39.7374 205.273 38.5154 205.704 37.2945L207.082 33.4698L208.764 28.662C209.022 28.5749 209.289 28.5115 209.554 28.4707C209.657 28.4587 209.76 28.4467 209.863 28.4346L210.084 28.4919C210.371 28.5674 210.659 28.6317 210.96 28.6745L211.501 34.661L211.573 35.729L211.67 36.9935C211.679 37.1313 211.707 37.2939 211.706 37.4192C211.705 38.5253 211.824 39.6895 211.912 40.8162C211.998 42.0796 212.073 43.3305 212.149 44.5814C212.162 44.788 212.217 45.0218 212.24 45.2409C212.294 45.6 212.358 45.9716 212.389 46.3284C212.55 48.2952 212.611 50.2402 212.828 52.2129C212.824 52.2467 212.842 52.2942 212.84 52.3167C212.8 53.6925 213.034 55.2792 213.027 56.6698C213.026 57.5705 213.136 58.4829 213.21 59.4143C213.29 60.2894 213.347 61.1734 213.395 62.0336C213.429 62.6986 213.41 63.3238 213.554 64.0117C213.593 64.1868 213.588 64.5627 213.594 64.837C213.617 66.0482 213.7 67.2314 213.96 68.3418C213.992 68.4706 214.016 68.6784 214.032 68.8512C214.212 70.8542 214.427 72.8381 214.643 74.822C214.744 75.7107 214.771 76.6713 214.812 77.588C214.836 78.3545 214.861 79.0984 214.886 79.8536L214.972 82.7705C214.988 83.274 215.022 83.7222 215.117 84.2226C215.198 84.6529 215.248 85.1599 215.311 85.6455C215.321 85.7719 215.344 85.991 215.328 86.035C215.228 86.3439 215.263 86.9975 215.22 87.415C215.17 87.9114 215.063 88.174 214.886 88.0301C214.58 87.8043 214.347 87.2098 214.151 85.9122C214.09 85.518 214.006 85.1215 213.923 84.8277C213.552 83.5803 213.349 81.917 213.193 80.3497C213.056 79.0354 212.895 77.73 212.784 76.3842C212.63 74.6804 212.478 72.9653 212.314 71.249L211.997 67.487C211.803 65.186 211.565 62.869 211.434 60.6088C211.338 59.0023 211.159 57.33 211.15 55.7554C211.145 55.2531 211.073 54.6298 211.03 54.0551L210.874 51.8265C210.826 51.2969 210.767 50.7662 210.696 50.2456C210.599 49.5398 210.539 48.9064 210.526 48.1523C210.521 47.5361 210.407 46.7715 210.332 46.068C210.299 45.7225 210.214 45.3373 210.212 45.0292C210.175 43.3947 210.004 41.7574 209.868 40.1011C209.786 39.0206 209.704 37.9401 209.625 36.8371L209.338 33.4431L209.318 33.2015C209.307 33.0863 209.285 33.084 209.268 33.0252L209.27 33.0026C209.204 33.2123 209.154 33.3668 209.086 33.4738C209.059 33.5166 209.033 33.5481 209.006 33.5909C208.967 33.6438 208.935 33.7317 208.891 33.8297C208.798 34.0709 208.717 34.3133 208.624 34.5545L207.211 38.2843C206.915 39.0744 206.595 39.8735 206.332 40.6672C205.906 41.9569 205.459 43.2217 204.968 44.4705C204.906 44.635 204.855 44.8008 204.793 44.9654L204.346 46.1161C204.3 46.2367 204.219 46.3651 204.185 46.4756C203.714 47.9773 203.095 49.3724 202.583 50.8356L201.524 53.6445L200.864 55.4458L200.104 57.442L198.657 61.499C198.592 61.6974 198.536 61.9082 198.47 62.1066L196.446 67.7112L195.339 67.9036C193.654 68.2067 191.957 68.5199 190.272 68.823C189.076 69.006 187.879 69.189 186.683 69.3607C186.027 69.4633 185.332 69.5048 184.663 69.7315C184.441 69.7995 184.05 69.8613 183.739 69.9087C182.808 70.0396 181.88 70.1479 180.946 70.3014C180.267 70.4129 179.581 70.5809 178.898 70.7262C178.631 70.7896 178.364 70.853 178.097 70.9163L175.714 71.3975L171.093 72.2836C168.887 72.7033 166.681 73.1117 164.475 73.5315L163.817 73.6566L163.357 73.7226L163.589 73.781C163.656 73.7881 163.813 73.8044 163.914 73.815L163.936 73.8173C164.072 73.8201 164.141 73.8045 164.175 73.808C164.287 73.8197 163.978 73.7418 164.728 73.9342C166.142 74.287 167.555 74.6398 168.969 74.9926L170.281 75.3462C172.122 75.8349 173.973 76.336 175.815 76.8247C176.716 77.0899 177.619 77.3438 178.521 77.6089C179.204 77.7943 179.898 77.9808 180.58 78.1774L182.939 78.8113C183.336 78.9211 183.743 79.0321 184.141 79.1306C184.449 79.2198 184.757 79.309 185.03 79.4059C185.86 79.7092 186.762 79.9743 187.689 80.208L193.791 81.78L198.336 82.8587C199.254 83.0687 200.111 83.3291 200.979 83.5908C201.44 83.7302 201.925 83.8606 202.401 83.9673C203.652 84.2575 204.903 84.5363 206.097 84.9346C206.567 85.0977 207.016 85.2472 207.486 85.4104C208.013 85.5793 208.574 85.7405 209.115 85.8768C211.205 86.3687 212.785 86.9783 214.303 87.6385C215.051 87.9674 214.823 88.1946 213.976 88.0606C213.306 87.9678 212.659 87.8774 212 87.7859C211.744 87.7364 211.465 87.6959 211.21 87.6464L211.212 87.6238L211.17 87.6993Z" fill="#2F1F49"/>
<path d="M60.0556 203.185L59.8641 202.878C59.6726 203.355 59.267 203.729 58.7713 203.831C58.422 203.911 58.0277 203.808 57.6672 203.718L56.9687 203.525L56.7096 203.468L54.0508 205.158L52.6312 206.066L51.7862 206.633L51.5159 206.814L51.4145 206.848V206.814C50.7047 206.633 49.7696 206.395 48.9359 206.236C47.798 206.032 46.6263 205.816 45.4772 205.612C44.8688 205.487 44.2266 205.408 43.652 205.192C43.4943 205.136 43.2577 205.09 43.0549 205.045L43.0099 205.113L42.9535 205.136C42.717 205.102 42.4578 205.079 42.21 205.022C41.5453 204.852 40.8693 204.75 40.1933 204.546C39.6187 204.364 38.954 204.274 38.3457 204.149L36.1037 203.672L34.594 203.377C34.3011 203.332 34.0082 203.321 33.7153 203.264L31.3606 202.742C31.1578 202.697 30.9325 202.606 30.7184 202.561L28.7018 202.243L27.8681 202.096L24.3981 201.449C24.3981 201.449 24.308 201.449 24.2854 201.381C24.2742 201.347 24.2629 201.324 24.2629 201.268L24.2066 199.691C24.1953 198.455 24.1503 197.229 24.1615 195.993C24.1728 195.131 24.0714 194.258 24.0376 193.373L23.9813 191.41L23.9587 190.537V189.618C23.9587 189.369 23.9362 189.13 23.9137 188.881L23.8461 186.317L23.6771 182.449C23.6433 181.984 23.6883 181.496 23.6771 181.031L23.5982 178.808L23.5757 176.301L23.5306 173.409C23.5306 173.034 23.5081 173 23.5419 172.921L23.6207 172.819L23.8686 172.66L25.7613 171.367L28.161 169.7C28.2962 169.609 28.4539 169.507 28.6117 169.393L28.5891 168.055C28.5891 167.783 28.6455 167.556 28.7243 167.329L28.4539 167.476C27.485 168.1 26.5274 168.747 25.7726 169.359C25.3107 169.643 24.984 169.87 24.646 170.074C24.0038 170.482 23.3842 170.913 22.8659 171.378C22.7983 171.435 22.618 171.594 22.4603 171.719L22.2237 171.911C22.2237 171.911 22.2575 171.957 22.2575 171.968C22.2913 172.059 22.1561 172.104 22.1561 172.195C21.9646 172.535 22.066 173.125 22.0547 173.352L22.1223 175.87C22.1449 176.324 22.1111 176.789 22.1449 177.22C22.1787 177.787 22.2125 178.366 22.1674 178.933C22.1561 179.182 22.1674 179.455 22.1674 179.727L22.2125 181.099L22.2463 184.207C22.2801 184.627 22.2688 185.047 22.3026 185.467L22.4265 189.108L22.5392 193.055L22.573 193.951C22.6068 194.507 22.6406 195.097 22.6518 195.641V199.43L22.6744 200.564V201.109V201.404L22.7307 201.812C22.7307 201.812 22.7645 201.903 22.7758 201.948C22.9335 202.391 23.294 202.776 23.7447 202.935C24.2742 203.083 24.4995 203.094 24.8938 203.185L26.2232 203.423L28.3751 203.74L29.5693 203.967L33.7265 204.75L34.1096 204.863C34.7067 205.113 35.4277 205.204 36.0812 205.351L39.0329 205.896L40.5651 206.213L44.497 207.019L46.4123 207.393C46.6827 207.438 46.9643 207.506 47.2234 207.552C47.7417 207.711 48.1923 207.835 48.6768 207.983C48.857 207.971 49.0824 207.983 49.2739 207.983V208.017L50.3104 208.266L51.1215 208.436H51.2455C51.2455 208.323 51.2567 208.334 51.268 208.357L51.3131 208.391L51.5384 208.436C51.6961 208.448 51.8313 208.436 51.9214 208.368L52.2932 208.153L52.5411 207.994L53.6677 207.279C53.9043 207.121 54.1296 206.951 54.3662 206.848C54.7718 206.644 55.0872 206.417 55.3802 206.134C55.5717 206.043 55.752 205.964 55.9097 205.85L57.2166 204.977L58.2643 204.319L60.0669 203.185" fill="#2F1F49"/>
<path d="M60.0556 203.185L59.8641 202.878C59.6726 203.355 59.267 203.729 58.7713 203.831C58.422 203.911 58.0277 203.808 57.6672 203.718L56.9687 203.525L56.7096 203.468L54.0508 205.158L52.6312 206.066L51.7862 206.633L51.5159 206.814L51.4145 206.848V206.814C50.7047 206.633 49.7696 206.395 48.9359 206.236C47.798 206.032 46.6263 205.816 45.4772 205.612C44.8688 205.487 44.2266 205.408 43.652 205.192C43.4943 205.136 43.2577 205.09 43.0549 205.045L43.0099 205.113L42.9535 205.136C42.717 205.102 42.4578 205.079 42.21 205.022C41.5453 204.852 40.8693 204.75 40.1933 204.546C39.6187 204.364 38.954 204.274 38.3457 204.149L36.1037 203.672L34.594 203.377C34.3011 203.332 34.0082 203.321 33.7153 203.264L31.3606 202.742C31.1578 202.697 30.9325 202.606 30.7184 202.561L28.7018 202.243L27.8681 202.096L24.3981 201.449C24.3981 201.449 24.308 201.449 24.2854 201.381C24.2742 201.347 24.2629 201.324 24.2629 201.268L24.2066 199.691C24.1953 198.455 24.1503 197.229 24.1615 195.993C24.1728 195.131 24.0714 194.258 24.0376 193.373L23.9813 191.41L23.9587 190.537V189.618C23.9587 189.369 23.9362 189.13 23.9137 188.881L23.8461 186.317L23.6771 182.449C23.6433 181.984 23.6883 181.496 23.6771 181.031L23.5982 178.808L23.5757 176.301L23.5306 173.409C23.5306 173.034 23.5081 173 23.5419 172.921L23.6207 172.819L23.8686 172.66L25.7613 171.367L28.161 169.7C28.2962 169.609 28.4539 169.507 28.6117 169.393L28.5891 168.055C28.5891 167.783 28.6455 167.556 28.7243 167.329L28.4539 167.476C27.485 168.1 26.5274 168.747 25.7726 169.359C25.3107 169.643 24.984 169.87 24.646 170.074C24.0038 170.482 23.3842 170.913 22.8659 171.378C22.7983 171.435 22.618 171.594 22.4603 171.719L22.2237 171.911C22.2237 171.911 22.2575 171.957 22.2575 171.968C22.2913 172.059 22.1561 172.104 22.1561 172.195C21.9646 172.535 22.066 173.125 22.0547 173.352L22.1223 175.87C22.1449 176.324 22.1111 176.789 22.1449 177.22C22.1787 177.787 22.2125 178.366 22.1674 178.933C22.1561 179.182 22.1674 179.455 22.1674 179.727L22.2125 181.099L22.2463 184.207C22.2801 184.627 22.2688 185.047 22.3026 185.467L22.4265 189.108L22.5392 193.055L22.573 193.951C22.6068 194.507 22.6406 195.097 22.6518 195.641V199.43L22.6744 200.564V201.109V201.404L22.7307 201.812C22.7307 201.812 22.7645 201.903 22.7758 201.948C22.9335 202.391 23.294 202.776 23.7447 202.935C24.2742 203.083 24.4995 203.094 24.8938 203.185L26.2232 203.423L28.3751 203.74L29.5693 203.967L33.7265 204.75L34.1096 204.863C34.7067 205.113 35.4277 205.204 36.0812 205.351L39.0329 205.896L40.5651 206.213L44.497 207.019L46.4123 207.393C46.6827 207.438 46.9643 207.506 47.2234 207.552C47.7417 207.711 48.1923 207.835 48.6768 207.983C48.857 207.971 49.0824 207.983 49.2739 207.983V208.017L50.3104 208.266L51.1215 208.436H51.2455C51.2455 208.323 51.2567 208.334 51.268 208.357L51.3131 208.391L51.5384 208.436C51.6961 208.448 51.8313 208.436 51.9214 208.368L52.2932 208.153L52.5411 207.994L53.6677 207.279C53.9043 207.121 54.1296 206.951 54.3662 206.848C54.7718 206.644 55.0872 206.417 55.3802 206.134C55.5717 206.043 55.752 205.964 55.9097 205.85L57.2166 204.977L58.2643 204.319L60.0669 203.185" stroke="#2F1F49" stroke-width="0.5" stroke-linecap="round" stroke-linejoin="round"/>
<path d="M63.0635 170.21C63.0635 170.21 63.0297 170.119 63.0185 170.074C62.4777 168.701 61.4637 167.544 60.0329 166.954C59.8076 166.864 59.5147 166.784 59.3006 166.716L58.7035 166.592L57.5431 166.376C57.0812 166.285 56.6305 166.263 56.1799 166.16L52.5184 165.389C52.1691 165.321 51.8537 165.196 51.5044 165.151L48.4062 164.606L47.1106 164.391L41.6352 163.347L36.8471 162.474C34.9882 162.111 33.1292 161.793 31.2816 161.362C29.986 161.079 28.634 160.897 27.3159 160.648L24.3416 160.081L23.0347 159.82L21.6602 159.513L20.5562 159.332L19.6323 159.15V160.262V160.625L20.6012 160.807L26.5498 161.929L27.9017 162.179L30.4479 162.644L36.1598 163.824L39.5172 164.493L42.8069 165.14L44.8461 165.514L48.1584 166.07L49.9722 166.41L56.3714 167.646C56.5517 167.68 56.7995 167.749 56.9573 167.794C57.8811 168.134 59.064 168.18 59.7963 168.622C60.6188 169.098 61.2947 169.881 61.6215 170.8C61.7567 171.185 61.8355 171.594 61.8355 172.014L61.8693 174.441L61.9594 180.691L62.027 183.731C62.0496 184.173 62.0496 184.616 62.0608 185.013C62.0158 185.852 61.9932 186.59 61.9594 187.361C62.0158 187.656 62.0608 187.973 62.1059 188.291H62.0721V189.97L62.1059 192.93V194.995C62.1059 195.403 62.1059 195.868 62.0834 196.254C62.0383 196.923 62.0721 197.547 62.1397 198.148C62.1059 198.454 62.0834 198.749 62.0946 199.078C62.0946 199.906 62.1172 200.723 62.1172 201.517L62.0608 206.406C62.0608 206.814 62.1284 207.325 62.1172 207.699C62.0608 208.505 62.0834 209.276 62.1172 210.104V210.478V212.112V212.69V213.847L63.8409 214.21L63.8071 209.82L63.717 205.068V204.296V197.105V194.507L63.6494 191.342C63.6381 189.924 63.6944 188.507 63.6606 187.089C63.6043 185.262 63.548 183.447 63.4917 181.621C63.4691 180.646 63.4128 179.67 63.4917 178.717C63.5142 178.445 63.5142 178.071 63.5029 177.753L63.4691 177.662C63.4353 177.277 63.4015 176.891 63.4128 176.517C63.4241 175.462 63.379 174.373 63.4241 173.307C63.4466 172.83 63.4579 172.342 63.4241 171.855C63.4128 171.288 63.3001 170.698 63.1086 170.165" fill="#2F1F49"/>
<path d="M63.0635 170.21C63.0635 170.21 63.0297 170.119 63.0185 170.074C62.4777 168.701 61.4637 167.544 60.0329 166.954C59.8076 166.864 59.5147 166.784 59.3006 166.716L58.7035 166.592L57.5431 166.376C57.0812 166.285 56.6305 166.263 56.1799 166.16L52.5184 165.389C52.1691 165.321 51.8537 165.196 51.5044 165.151L48.4062 164.606L47.1106 164.391L41.6352 163.347L36.8471 162.474C34.9882 162.111 33.1292 161.793 31.2816 161.362C29.986 161.079 28.634 160.897 27.3159 160.648L24.3416 160.081L23.0347 159.82L21.6602 159.513L20.5562 159.332L19.6323 159.15V160.262V160.625L20.6012 160.807L26.5498 161.929L27.9017 162.179L30.4479 162.644L36.1598 163.824L39.5172 164.493L42.8069 165.14L44.8461 165.514L48.1584 166.07L49.9722 166.41L56.3714 167.646C56.5517 167.68 56.7995 167.749 56.9573 167.794C57.8811 168.134 59.064 168.18 59.7963 168.622C60.6188 169.098 61.2947 169.881 61.6215 170.8C61.7567 171.185 61.8355 171.594 61.8355 172.014L61.8693 174.441L61.9594 180.691L62.027 183.731C62.0496 184.173 62.0496 184.616 62.0608 185.013C62.0158 185.852 61.9932 186.59 61.9594 187.361C62.0158 187.656 62.0608 187.973 62.1059 188.291H62.0721V189.97L62.1059 192.93V194.995C62.1059 195.403 62.1059 195.868 62.0834 196.254C62.0383 196.923 62.0721 197.547 62.1397 198.148C62.1059 198.454 62.0834 198.749 62.0946 199.078C62.0946 199.906 62.1172 200.723 62.1172 201.517L62.0608 206.406C62.0608 206.814 62.1284 207.325 62.1172 207.699C62.0608 208.505 62.0834 209.276 62.1172 210.104V210.478V212.112V212.69V213.847L63.8409 214.21L63.8071 209.82L63.717 205.068V204.296V197.105V194.507L63.6494 191.342C63.6381 189.924 63.6944 188.507 63.6606 187.089C63.6043 185.262 63.548 183.447 63.4917 181.621C63.4691 180.646 63.4128 179.67 63.4917 178.717C63.5142 178.445 63.5142 178.071 63.5029 177.753L63.4691 177.662C63.4353 177.277 63.4015 176.891 63.4128 176.517C63.4241 175.462 63.379 174.373 63.4241 173.307C63.4466 172.83 63.4579 172.342 63.4241 171.855C63.4128 171.288 63.3001 170.698 63.1086 170.165" stroke="#2F1F49" stroke-width="0.5" stroke-linecap="round" stroke-linejoin="round"/>
<path d="M14.4613 142.295V142.26C14.4613 142.26 14.3825 142.306 14.3374 142.34C14.3825 142.329 14.4163 142.317 14.4613 142.295ZM72.978 228.673C72.1781 228.843 71.3894 228.911 70.5783 228.911C70.1389 229.399 69.6319 229.841 69.1024 230.227C67.3336 231.384 65.2156 231.928 63.075 231.792C62.0723 231.747 61.0696 231.543 59.9655 231.338L56.7659 230.726L55.7407 230.533L46.1193 228.503L42.6494 227.788C41.2524 227.504 39.8215 227.209 38.4133 226.949C36.5093 226.552 34.594 226.132 32.7126 225.735L25.3783 224.351C24.0714 224.101 22.7645 223.875 21.5027 223.523C21.1422 223.41 20.6465 223.33 20.2071 223.239V223.194L20.0832 223.183C19.5649 223.081 19.0467 223.012 18.5397 222.899C17.1539 222.57 15.5992 222.377 14.3374 221.969C13.2333 221.561 12.0053 221.13 10.9463 220.449C9.67319 219.655 8.47897 218.679 7.45375 217.568C6.77778 216.819 6.12434 216.002 5.57229 215.152C5.23431 214.675 4.89632 214.176 4.62593 213.654C4.33301 213.076 4.06262 212.463 3.84856 211.851C3.52184 210.955 3.28525 210.025 3.12753 209.083C3.0712 208.641 3.01486 208.198 3.0036 207.745C2.89094 206.44 2.89094 204.897 2.81207 203.457L2.74448 201.653L2.56422 193.951L2.37269 187.225C2.32763 184.605 2.2375 181.984 2.2375 179.375C2.2375 177.549 2.12483 175.666 2.0685 173.806L1.96711 169.62L1.92204 167.794V165.866L1.85445 164.3C1.80938 162.497 1.78685 160.67 1.74178 158.867C1.64039 156.292 2.27129 153.706 3.8035 151.698C4.14148 151.244 4.5358 150.847 4.98645 150.462L5.4371 150.087L5.74128 149.894L7.99452 148.352C8.47897 147.32 9.12114 146.344 9.88725 145.482C9.93231 145.448 9.95484 145.425 9.98864 145.38C9.54926 145.675 9.09861 145.958 8.64796 146.231C8.20858 146.491 7.7354 146.832 7.26222 147.149L4.86252 148.817L4.08515 149.361L3.57817 149.702L3.67957 149.849C2.41776 151.097 1.44886 152.651 0.896818 154.341C0.615163 155.214 0.44617 156.145 0.356041 157.075C0.20958 158.436 0.333508 159.729 0.356041 160.999L0.44617 164.833L0.648962 173.227L0.705293 175.11C0.739092 176.301 0.77289 177.492 0.806689 178.683L0.908085 186.737L0.964416 191.478L1.05455 196.107C1.07708 197.082 1.11088 198.035 1.13341 198.999L1.31367 203.65C1.32493 204.5 1.35873 205.351 1.38126 206.213C1.35873 208.232 1.70798 210.274 2.39522 212.191C2.74448 213.167 3.18386 214.108 3.69084 215.004C3.8373 215.265 3.97249 215.515 4.09642 215.753C4.70479 217.012 5.74128 218.203 6.76651 219.235C8.30998 220.778 10.1576 222.014 12.163 222.854C13.2108 223.296 14.3374 223.625 15.4415 223.852L23.8123 225.542L27.8794 226.347C28.4765 226.472 29.0736 226.586 29.6031 226.688C30.7185 226.971 31.6873 227.209 32.7013 227.459C33.0844 227.493 33.535 227.538 33.9744 227.584V227.618L36.1938 228.106L40.1595 228.922L42.931 229.501C43.5056 229.626 44.1365 229.728 44.6322 229.864C45.5335 230.102 46.3447 230.261 47.1671 230.352C47.5727 230.465 47.9783 230.567 48.3951 230.669C49.4767 230.873 50.6033 231.1 51.6736 231.316L58.1967 232.756C58.7488 232.881 59.4473 232.938 59.9317 233.074C60.9682 233.335 62.1737 233.607 63.3566 233.573C63.5594 233.573 63.7397 233.584 63.9312 233.584L65.1367 233.505L66.3309 233.301C66.6013 233.255 66.8717 233.142 67.1533 233.051C68.9221 232.507 70.5445 231.509 71.8401 230.159C71.8739 230.147 71.8739 230.113 71.8964 230.091C72.2569 229.648 72.6175 229.229 72.9104 228.763" fill="#2F1F49"/>
<path d="M72.978 228.661C72.1781 228.832 71.3894 228.9 70.5783 228.9C70.1389 229.387 69.6319 229.83 69.1024 230.215C67.3336 231.372 65.2156 231.917 63.075 231.781C62.0723 231.735 61.0696 231.531 59.9655 231.327L56.7659 230.715L55.7407 230.522L46.1193 228.491L42.6494 227.777C41.2524 227.493 39.8215 227.198 38.4133 226.937C36.5093 226.54 34.594 226.121 32.7126 225.724L25.3783 224.34C24.0714 224.09 22.7645 223.863 21.5027 223.512C21.1422 223.398 20.6465 223.319 20.2071 223.228V223.183L20.0832 223.171C19.5649 223.069 19.0467 223.001 18.5397 222.888C17.1539 222.559 15.5992 222.366 14.3374 221.958C13.2333 221.549 12.0053 221.118 10.9463 220.438C9.67319 219.644 8.47897 218.668 7.45375 217.556C6.77778 216.808 6.12434 215.991 5.57229 215.14C5.23431 214.664 4.89632 214.165 4.62593 213.643C4.33301 213.065 4.06262 212.452 3.84856 211.839C3.52184 210.943 3.28525 210.013 3.12753 209.072C3.0712 208.629 3.01486 208.187 3.0036 207.733C2.89094 206.429 2.89094 204.886 2.81207 203.446L2.74448 201.642L2.56422 193.94L2.37269 187.213C2.32763 184.593 2.2375 181.973 2.2375 179.364C2.2375 177.538 2.12483 175.655 2.0685 173.795L1.96711 169.609L1.92204 167.783V165.854L1.85445 164.289C1.80938 162.485 1.78685 160.659 1.74178 158.856C1.64039 156.281 2.27129 153.694 3.8035 151.687C4.14148 151.233 4.5358 150.836 4.98645 150.45L5.4371 150.076L5.74128 149.883L7.99452 148.34C8.47897 147.308 9.12114 146.333 9.88725 145.471C9.93231 145.437 9.95484 145.414 9.98864 145.369C9.54926 145.663 9.09861 145.947 8.64796 146.219C8.20858 146.48 7.7354 146.82 7.26222 147.138L4.86252 148.806L4.08515 149.35L3.57817 149.69L3.67957 149.838C2.41776 151.085 1.44886 152.639 0.896818 154.33C0.615163 155.203 0.44617 156.133 0.356041 157.063C0.20958 158.425 0.333508 159.718 0.356041 160.988L0.44617 164.822L0.648962 173.216L0.705293 175.099C0.739092 176.29 0.77289 177.481 0.806689 178.672L0.908085 186.726L0.964416 191.467L1.05455 196.095C1.07708 197.071 1.11088 198.023 1.13341 198.988L1.31367 203.638C1.32493 204.489 1.35873 205.34 1.38126 206.202C1.35873 208.221 1.70798 210.263 2.39522 212.18C2.74448 213.155 3.18386 214.097 3.69084 214.993C3.8373 215.254 3.97249 215.503 4.09642 215.742C4.70479 217.001 5.74128 218.192 6.76651 219.224C8.30998 220.767 10.1576 222.003 12.163 222.842C13.2108 223.285 14.3374 223.614 15.4415 223.841L23.8123 225.531L27.8794 226.336C28.4765 226.461 29.0736 226.574 29.6031 226.676C30.7185 226.96 31.6873 227.198 32.7013 227.448C33.0844 227.482 33.535 227.527 33.9744 227.572V227.606L36.1938 228.094L40.1595 228.911L42.931 229.489C43.5056 229.614 44.1365 229.716 44.6322 229.852C45.5335 230.091 46.3447 230.249 47.1671 230.34C47.5727 230.454 47.9783 230.556 48.3951 230.658C49.4767 230.862 50.6033 231.089 51.6736 231.304L58.1967 232.745C58.7488 232.87 59.4473 232.926 59.9317 233.063C60.9682 233.323 62.1737 233.596 63.3566 233.562C63.5594 233.562 63.7397 233.573 63.9312 233.573L65.1367 233.494L66.3309 233.289C66.6013 233.244 66.8717 233.131 67.1533 233.04C68.9221 232.495 70.5445 231.497 71.8401 230.147C71.8739 230.136 71.8739 230.102 71.8964 230.079C72.2569 229.637 72.6175 229.217 72.9104 228.752M14.4613 142.295V142.26C14.4613 142.26 14.3825 142.306 14.3374 142.34C14.3825 142.329 14.4163 142.317 14.4613 142.295Z" stroke="#2F1F49" stroke-width="0.5" stroke-linecap="round" stroke-linejoin="round"/>
<path d="M79.2645 161.839C79.1856 161.623 79.1067 161.408 79.0279 161.181C78.8814 160.818 78.6786 160.432 78.4758 160.069C78.0139 159.253 77.4619 158.481 76.876 157.744C75.4678 155.895 73.744 154.284 71.7274 153.105C70.7697 152.526 69.7445 152.05 68.6742 151.698C67.6152 151.324 66.4999 151.131 65.4859 150.927L64.4719 150.723L55.0196 148.715L51.6059 148.012C50.2089 147.728 48.8119 147.478 47.4262 147.184C45.556 146.798 43.6858 146.378 41.8269 145.981L34.594 144.62C33.3096 144.37 32.014 144.144 30.7747 143.803C30.4255 143.69 29.9298 143.633 29.5017 143.531L29.5805 143.644H29.4566C28.9496 143.542 28.4426 143.474 27.9356 143.361C26.5274 143.066 25.1078 142.805 23.6996 142.476C22.4715 142.181 21.2097 141.92 19.7339 141.727C17.9989 141.535 16.2301 141.682 14.5514 142.238C14.5176 142.238 14.4951 142.261 14.4613 142.272C14.4162 142.283 14.3824 142.295 14.3373 142.317C13.2896 142.692 12.2756 143.202 11.3969 143.905C10.8674 144.302 10.4505 144.779 10.0111 145.232C9.96606 145.267 9.94353 145.289 9.90973 145.335C9.14363 146.197 8.50145 147.172 8.01701 148.204C7.71282 148.851 7.46496 149.52 7.2847 150.212C7.16078 150.723 6.96925 151.199 6.93545 151.721C6.82279 152.503 6.82279 153.263 6.81152 154.035L6.90165 156.19L6.95798 157.971L7.12698 165.548L7.3185 172.172C7.37483 174.747 7.43116 177.311 7.44243 179.909C7.44243 181.701 7.55509 183.55 7.61142 185.387L7.70155 189.505L7.74662 191.308V193.203L7.81422 194.734C7.85928 196.526 7.88181 198.318 7.92688 200.099C7.97194 201.415 7.97194 202.788 8.186 204.206C8.33246 205.34 8.65918 206.44 9.04223 207.495C9.13236 207.756 9.22249 208.017 9.31262 208.255C9.70694 209.197 10.1238 210.149 10.6646 211.023C11.487 212.429 12.546 213.643 13.6839 214.777C14.9795 216.048 16.4103 217.137 18.0214 217.965C19.869 218.974 22.066 219.417 23.9925 219.768L27.6427 220.506L32.352 221.425L38.3006 222.57L43.0436 223.478L46.063 224.022C46.3221 224.067 46.5925 224.158 46.8629 224.215V224.181L61.9032 227.198C62.23 227.289 62.5342 227.368 62.8609 227.436C63.1989 227.482 63.5368 227.573 63.8748 227.641C65.5084 227.992 67.0519 228.401 68.8207 228.684C69.3953 228.764 70.0036 228.82 70.5782 228.82C71.3781 228.82 72.178 228.752 72.9779 228.582C73.3948 228.503 73.8003 228.389 74.1947 228.264C74.803 228.06 75.4002 227.811 75.9522 227.504C76.1663 227.391 76.369 227.266 76.5718 227.141C77.1126 226.79 77.6421 226.393 78.104 225.95C78.2054 225.848 78.3181 225.746 78.4195 225.633C79.1293 224.93 79.6362 224.124 80.132 223.273C81.2586 221.266 81.743 218.94 81.7205 216.672C81.7205 216.354 81.743 216.059 81.7318 215.515C81.7318 215.356 81.7318 214.97 81.7092 214.562L81.6416 210.456L81.5177 202.776V201.744C81.4839 200.201 81.4163 198.625 81.4276 197.127C81.4501 195.154 81.4163 193.169 81.3712 191.195C81.3487 189.278 81.2924 187.35 81.2473 185.41L81.191 181.202C81.191 180.294 81.0896 179.375 81.0896 178.479C81.0896 177.175 81.1346 175.882 80.9882 174.623C80.9093 174.203 80.8417 173.783 80.7967 173.42C80.7854 172.717 80.7629 172.127 80.7516 171.526C80.7291 170.755 80.4925 168.94 80.346 168.52C80.346 168.486 80.3235 168.463 80.3235 168.441L80.1658 168.463C80.1658 168.463 80.1207 168.565 80.0982 168.622C79.9968 168.917 79.8841 169.257 79.7827 169.598C79.5912 170.335 79.3884 171.118 79.1969 171.866C79.2194 172.49 79.2307 173.159 79.2194 173.636C79.1518 174.815 79.1743 175.938 79.2419 177.141C79.2757 177.663 79.287 178.207 79.3095 178.763L79.4222 182.699C79.456 184.23 79.6024 185.716 79.5799 187.293C79.5912 187.565 79.6137 187.849 79.6137 188.144C79.7264 190.231 79.8728 192.284 79.963 194.405C80.0193 196.81 80.0869 199.271 80.1545 201.665C80.2108 203.298 80.1545 204.92 80.2897 206.554C80.3573 207.563 80.4023 208.72 80.4136 209.798C80.4361 212.203 80.4925 214.653 80.4699 217.023C80.4136 218.918 79.963 220.755 79.1067 222.457C78.2618 224.067 76.831 225.406 75.1748 226.245C74.1721 226.733 73.0793 227.039 71.964 227.221C70.8261 227.323 69.6882 227.312 68.5728 227.107L64.8775 226.416L60.8217 225.553L56.5743 224.635C54.1634 224.147 51.7524 223.67 49.3527 223.183L41.7255 221.527C39.3596 221.028 36.9937 220.574 34.9996 220.268C33.8729 220.041 33.073 219.859 32.2619 219.7C30.7409 219.371 29.1975 219.076 27.7667 218.906C26.6964 218.782 25.6373 218.645 24.4319 218.396C22.6856 218.044 21.0295 217.795 19.5085 217.103C18.6974 216.74 17.8862 216.263 17.1426 215.798C16.1512 215.174 15.2724 214.448 14.5063 213.586C14.1796 213.235 13.8191 212.804 13.4698 212.395C12.8727 211.681 12.332 210.943 11.8475 210.161C11.2955 209.242 10.8448 208.266 10.4843 207.268C10.1463 206.327 9.89846 205.351 9.72947 204.353C9.58301 203.548 9.52668 202.72 9.47035 201.869L9.27882 194.28L9.07603 186.023L9.0197 184.151C8.97463 182.983 8.9521 181.803 8.9183 180.623L8.82817 172.683L8.76058 168.01L8.65918 163.45C8.64791 162.508 8.60285 161.567 8.58032 160.614L8.38879 156.031C8.38879 155.192 8.32119 154.318 8.35499 153.513C8.35499 150.643 9.42528 147.739 11.4757 145.754C11.6673 145.561 11.8588 145.357 12.0841 145.244C13.1431 144.518 14.3824 143.826 15.6893 143.508C17.6383 142.975 19.6325 143.111 21.6716 143.542L24.8938 144.178L33.1294 145.834L37.1401 146.628C37.7147 146.741 38.3006 146.855 38.8188 146.968C39.9004 147.229 40.8805 147.478 41.8719 147.717C42.255 147.751 42.7056 147.807 43.1338 147.841V147.875L45.3194 148.363L49.2288 149.157L51.9552 149.736C52.5072 149.86 53.1156 149.951 53.6113 150.099C54.5014 150.348 55.29 150.484 56.1124 150.586C56.5067 150.689 56.9011 150.802 57.3179 150.893C58.3882 151.108 59.4697 151.335 60.54 151.539L66.9392 152.969C67.4462 153.093 68.0771 153.195 68.494 153.4C69.4403 153.797 70.3078 154.25 71.2204 154.761L71.626 155.033C72.2005 155.407 72.7413 155.85 73.2596 156.303C73.4511 156.462 73.6314 156.621 73.8004 156.78C74.9495 157.88 75.9409 159.139 76.7408 160.534C77 161.011 77.2929 161.499 77.5182 161.975C77.6759 162.327 77.8337 162.701 77.9576 163.075C78.273 163.949 78.5096 164.833 78.6786 165.809C78.8363 166.195 78.9828 166.592 79.1293 167.011C79.2419 167.431 79.3659 167.851 79.4898 168.293C79.6926 167.941 79.8728 167.658 80.0531 167.25C80.0869 167.193 80.1094 167.125 80.132 167.045C80.2334 166.807 80.2334 166.285 80.1996 165.707C80.0869 164.436 79.7827 163.109 79.3321 161.839" fill="#2F1F49"/>
<path d="M79.2645 161.839C79.1856 161.623 79.1067 161.408 79.0279 161.181C78.8814 160.818 78.6786 160.432 78.4758 160.069C78.0139 159.253 77.4619 158.481 76.876 157.744C75.4678 155.895 73.744 154.284 71.7274 153.105C70.7697 152.526 69.7445 152.05 68.6742 151.698C67.6152 151.324 66.4999 151.131 65.4859 150.927L64.4719 150.723L55.0196 148.715L51.6059 148.012C50.2089 147.728 48.8119 147.478 47.4262 147.184C45.556 146.798 43.6858 146.378 41.8269 145.981L34.594 144.62C33.3096 144.37 32.014 144.144 30.7747 143.803C30.4255 143.69 29.9298 143.633 29.5017 143.531L29.5805 143.644H29.4566C28.9496 143.542 28.4426 143.474 27.9356 143.361C26.5274 143.066 25.1078 142.805 23.6996 142.476C22.4715 142.181 21.2097 141.92 19.7339 141.727C17.9989 141.535 16.2301 141.682 14.5514 142.238C14.5176 142.238 14.4951 142.261 14.4613 142.272C14.4162 142.283 14.3824 142.295 14.3373 142.317C13.2896 142.692 12.2756 143.202 11.3969 143.905C10.8674 144.302 10.4505 144.779 10.0111 145.232C9.96606 145.267 9.94353 145.289 9.90973 145.335C9.14363 146.197 8.50145 147.172 8.01701 148.204C7.71282 148.851 7.46496 149.52 7.2847 150.212C7.16078 150.723 6.96925 151.199 6.93545 151.721C6.82279 152.503 6.82279 153.263 6.81152 154.035L6.90165 156.19L6.95798 157.971L7.12698 165.548L7.3185 172.172C7.37483 174.747 7.43116 177.311 7.44243 179.909C7.44243 181.701 7.55509 183.55 7.61142 185.387L7.70155 189.505L7.74662 191.308V193.203L7.81422 194.734C7.85928 196.526 7.88181 198.318 7.92688 200.099C7.97194 201.415 7.97194 202.788 8.186 204.206C8.33246 205.34 8.65918 206.44 9.04223 207.495C9.13236 207.756 9.22249 208.017 9.31262 208.255C9.70694 209.197 10.1238 210.149 10.6646 211.023C11.487 212.429 12.546 213.643 13.6839 214.777C14.9795 216.048 16.4103 217.137 18.0214 217.965C19.869 218.974 22.066 219.417 23.9925 219.768L27.6427 220.506L32.352 221.425L38.3006 222.57L43.0436 223.478L46.063 224.022C46.3221 224.067 46.5925 224.158 46.8629 224.215V224.181L61.9032 227.198C62.23 227.289 62.5342 227.368 62.8609 227.436C63.1989 227.482 63.5368 227.573 63.8748 227.641C65.5084 227.992 67.0519 228.401 68.8207 228.684C69.3953 228.764 70.0036 228.82 70.5782 228.82C71.3781 228.82 72.178 228.752 72.9779 228.582C73.3948 228.503 73.8003 228.389 74.1947 228.264C74.803 228.06 75.4002 227.811 75.9522 227.504C76.1663 227.391 76.369 227.266 76.5718 227.141C77.1126 226.79 77.6421 226.393 78.104 225.95C78.2054 225.848 78.3181 225.746 78.4195 225.633C79.1293 224.93 79.6362 224.124 80.132 223.273C81.2586 221.266 81.743 218.94 81.7205 216.672C81.7205 216.354 81.743 216.059 81.7318 215.515C81.7318 215.356 81.7318 214.97 81.7092 214.562L81.6416 210.456L81.5177 202.776V201.744C81.4839 200.201 81.4163 198.625 81.4276 197.127C81.4501 195.154 81.4163 193.169 81.3712 191.195C81.3487 189.278 81.2924 187.35 81.2473 185.41L81.191 181.202C81.191 180.294 81.0896 179.375 81.0896 178.479C81.0896 177.175 81.1346 175.882 80.9882 174.623C80.9093 174.203 80.8417 173.783 80.7967 173.42C80.7854 172.717 80.7629 172.127 80.7516 171.526C80.7291 170.755 80.4925 168.94 80.346 168.52C80.346 168.486 80.3235 168.463 80.3235 168.441L80.1658 168.463C80.1658 168.463 80.1207 168.565 80.0982 168.622C79.9968 168.917 79.8841 169.257 79.7827 169.598C79.5912 170.335 79.3884 171.118 79.1969 171.866C79.2194 172.49 79.2307 173.159 79.2194 173.636C79.1518 174.815 79.1743 175.938 79.2419 177.141C79.2757 177.663 79.287 178.207 79.3095 178.763L79.4222 182.699C79.456 184.23 79.6024 185.716 79.5799 187.293C79.5912 187.565 79.6137 187.849 79.6137 188.144C79.7264 190.231 79.8728 192.284 79.963 194.405C80.0193 196.81 80.0869 199.271 80.1545 201.665C80.2108 203.298 80.1545 204.92 80.2897 206.554C80.3573 207.563 80.4023 208.72 80.4136 209.798C80.4361 212.203 80.4925 214.653 80.4699 217.023C80.4136 218.918 79.963 220.755 79.1067 222.457C78.2618 224.067 76.831 225.406 75.1748 226.245C74.1721 226.733 73.0793 227.039 71.964 227.221C70.8261 227.323 69.6882 227.312 68.5728 227.107L64.8775 226.416L60.8217 225.553L56.5743 224.635C54.1634 224.147 51.7524 223.67 49.3527 223.183L41.7255 221.527C39.3596 221.028 36.9937 220.574 34.9996 220.268C33.8729 220.041 33.073 219.859 32.2619 219.7C30.7409 219.371 29.1975 219.076 27.7667 218.906C26.6964 218.782 25.6373 218.645 24.4319 218.396C22.6856 218.044 21.0295 217.795 19.5085 217.103C18.6974 216.74 17.8862 216.263 17.1426 215.798C16.1512 215.174 15.2724 214.448 14.5063 213.586C14.1796 213.235 13.8191 212.804 13.4698 212.395C12.8727 211.681 12.332 210.943 11.8475 210.161C11.2955 209.242 10.8448 208.266 10.4843 207.268C10.1463 206.327 9.89846 205.351 9.72947 204.353C9.58301 203.548 9.52668 202.72 9.47035 201.869L9.27882 194.28L9.07603 186.023L9.0197 184.151C8.97463 182.983 8.9521 181.803 8.9183 180.623L8.82817 172.683L8.76058 168.01L8.65918 163.45C8.64791 162.508 8.60285 161.567 8.58032 160.614L8.38879 156.031C8.38879 155.192 8.32119 154.318 8.35499 153.513C8.35499 150.643 9.42528 147.739 11.4757 145.754C11.6673 145.561 11.8588 145.357 12.0841 145.244C13.1431 144.518 14.3824 143.826 15.6893 143.508C17.6383 142.975 19.6325 143.111 21.6716 143.542L24.8938 144.178L33.1294 145.834L37.1401 146.628C37.7147 146.741 38.3006 146.855 38.8188 146.968C39.9004 147.229 40.8805 147.478 41.8719 147.717C42.255 147.751 42.7056 147.807 43.1338 147.841V147.875L45.3194 148.363L49.2288 149.157L51.9552 149.736C52.5072 149.86 53.1156 149.951 53.6113 150.099C54.5014 150.348 55.29 150.484 56.1124 150.586C56.5067 150.689 56.9011 150.802 57.3179 150.893C58.3882 151.108 59.4697 151.335 60.54 151.539L66.9392 152.969C67.4462 153.093 68.0771 153.195 68.494 153.4C69.4403 153.797 70.3078 154.25 71.2204 154.761L71.626 155.033C72.2005 155.407 72.7413 155.85 73.2596 156.303C73.4511 156.462 73.6314 156.621 73.8004 156.78C74.9495 157.88 75.9409 159.139 76.7408 160.534C77 161.011 77.2929 161.499 77.5182 161.975C77.6759 162.327 77.8337 162.701 77.9576 163.075C78.273 163.949 78.5096 164.833 78.6786 165.809C78.8363 166.195 78.9828 166.592 79.1293 167.011C79.2419 167.431 79.3659 167.851 79.4898 168.293C79.6926 167.941 79.8728 167.658 80.0531 167.25C80.0869 167.193 80.1094 167.125 80.132 167.045C80.2334 166.807 80.2334 166.285 80.1996 165.707C80.0869 164.436 79.7827 163.109 79.3321 161.839" stroke="#2F1F49" stroke-width="0.5" stroke-linecap="round" stroke-linejoin="round"/>
<path d="M69.9924 165.366C69.7107 164.595 69.2488 163.869 68.6292 163.234C67.9307 162.814 67.097 162.531 66.2745 162.519C66.5111 162.814 66.6688 163.098 66.8266 163.404C66.8378 163.449 66.8829 163.506 66.9167 163.563C67.0068 163.722 67.2434 163.994 67.5025 164.278C67.8631 164.675 68.1447 165.162 68.3362 165.684C68.4827 166.092 68.5728 166.523 68.5616 166.943C68.5616 167.215 68.539 167.499 68.5616 167.771C68.5954 168.429 68.5954 169.121 68.6292 169.779L68.6742 174.759L68.7644 179.511V180.283V187.474V190.072L68.8094 193.237C68.8207 194.655 68.7644 196.072 68.7982 197.49C68.8545 199.317 68.9108 201.131 68.9672 202.958C68.9897 203.933 69.046 204.909 68.9672 205.85C68.9446 206.122 68.9446 206.508 68.9672 206.814L69.0573 206.735L69.0911 206.826C69.1249 207.211 69.1474 207.597 69.1474 207.983C69.1361 209.038 69.1812 210.127 69.1361 211.193C69.1136 211.669 69.1023 212.146 69.1361 212.645C69.1699 213.201 69.1587 213.53 69.0798 213.813C68.8883 214.55 68.2912 214.959 67.5589 214.913C67.3674 214.913 66.973 214.811 66.5787 214.743L65.4183 214.516C64.9677 214.437 64.5057 214.403 64.0664 214.324L63.8298 214.278L62.106 213.927L60.4048 213.575C60.0556 213.496 59.7401 213.382 59.3909 213.337L56.2701 212.804L54.9745 212.588L49.5217 211.545L44.7223 210.671C42.8634 210.308 41.0044 209.99 39.1568 209.559C37.8612 209.276 36.5092 209.094 35.1911 208.845L32.2168 208.278L30.9099 208.017L29.5355 207.711L28.4314 207.529L24.5671 206.78L23.125 206.519C22.7419 206.451 22.4152 206.293 22.066 206.077C21.4013 205.669 20.8605 204.965 20.5901 204.205C20.4887 203.911 20.4436 203.638 20.4324 203.343V202.277L20.331 198.852L20.2634 195.006L20.207 190.514L20.1507 187.747L20.0831 184.173L19.9592 179.67L19.8691 176.086L19.7789 173.817C19.7564 173.613 19.7789 173.409 19.8015 173.205H19.7677L19.6099 161.805C19.6212 161.555 19.6437 161.328 19.655 161.067V160.659L19.6325 160.296V159.184L19.655 158.447C19.6888 157.88 19.6325 157.097 19.7113 156.746C19.8691 155.861 20.5112 155.271 21.39 155.271C21.728 155.248 22.3701 155.419 22.9109 155.509L24.5783 155.816L26.5386 156.122L31.2254 156.984C31.4282 157.029 31.6535 157.086 32.0478 157.165C32.1717 157.165 32.4647 157.233 32.7576 157.29L35.7206 157.88L41.2523 158.992L42.0071 159.15C43.1112 159.366 44.2604 159.57 45.3419 159.82C46.7615 160.16 48.1697 160.444 49.6118 160.693L53.7803 161.498L56.8109 162.122C57.4531 162.247 58.1178 162.304 58.7712 162.44C59.7176 162.633 60.6189 162.882 61.554 162.939C61.8582 162.939 62.1736 162.939 62.444 162.939C62.951 163.052 63.3791 163.121 63.8298 163.211C64.4381 163.336 65.9703 163.359 66.1281 163.268V163.132V163.098C65.9253 162.916 65.6887 162.735 65.4183 162.542C64.9226 162.224 64.4156 161.907 63.9312 161.601C63.4692 161.498 62.9961 161.442 62.6468 161.328C61.8244 161.079 61.002 160.931 60.1345 160.807C59.7401 160.727 59.3571 160.682 58.974 160.614L56.1349 160.092C55.0309 159.888 53.9493 159.808 52.8114 159.513C52.6312 159.479 52.3946 159.445 52.1918 159.411C50.6708 159.184 49.1724 159.014 47.629 158.742C45.8827 158.413 44.1477 158.084 42.3902 157.755C41.2185 157.54 40.0356 157.245 38.8639 157.109C38.1428 157.007 37.3091 156.87 36.5092 156.712L31.3042 155.657C29.8847 155.362 28.4877 155.044 27.0231 154.817C25.6261 154.59 24.1953 154.227 22.7757 153.955C22.3589 153.887 21.8857 153.751 21.3224 153.774C20.7929 153.796 20.2521 153.921 19.7789 154.227C18.81 154.817 18.303 155.918 18.2805 156.961C18.2805 157.948 18.3481 158.833 18.3481 159.774V162.86L18.3256 166.092L18.4044 171.571L18.3594 177.368C18.3594 179.16 18.3932 180.952 18.5058 182.449C18.5058 183.311 18.5058 183.913 18.5058 184.536C18.5058 185.693 18.5171 186.873 18.6636 187.939C18.7537 188.756 18.8438 189.539 18.8438 190.458L18.934 194.348C18.9452 195.052 18.934 195.743 18.9678 196.435C19.0016 197.332 19.0579 198.194 19.0016 199.09C19.0016 199.464 19.0016 199.895 19.0016 200.303L19.0804 202.425C19.0804 203.117 19.0579 204.013 19.3508 204.841C19.3733 204.897 19.3959 204.965 19.4071 205.011C19.7226 205.862 20.2972 206.599 21.0069 207.189C21.559 207.631 22.2913 207.96 23.0011 208.062L28.4764 209.083L34.425 210.206L35.7769 210.456L38.3231 210.921L44.0351 212.1L47.3924 212.77L50.6821 213.416L52.7213 213.813L56.0448 214.358L57.8587 214.698L64.2691 215.934C64.4494 215.968 64.6973 216.036 64.855 216.082C65.3282 216.241 65.8239 216.354 66.3421 216.467C66.8266 216.581 67.4575 216.728 68.0771 216.626C68.9784 216.524 69.8347 215.934 70.274 215.106C70.7472 214.312 70.7134 213.314 70.6796 212.599L70.6458 210.172L70.5557 203.922L70.4881 200.882C70.4656 200.44 70.4656 199.997 70.4543 199.6C70.4994 198.761 70.5219 198.023 70.5557 197.252C70.4994 196.957 70.4543 196.651 70.4092 196.322H70.443V194.643L70.4092 191.683V189.629C70.4092 189.21 70.4092 188.733 70.4318 188.359C70.4768 187.69 70.443 187.066 70.3754 186.465C70.4092 186.158 70.4318 185.864 70.4205 185.535C70.4205 184.707 70.398 183.89 70.398 183.096L70.4543 178.207C70.4543 177.799 70.3754 177.288 70.398 176.914C70.4543 176.108 70.4318 175.337 70.398 174.509V174.135V172.501L70.3754 171.923V168.168C70.3529 167.703 70.3642 167.397 70.3191 166.807C70.274 166.342 70.1726 165.877 70.0262 165.457" fill="#2F1F49"/>
<path d="M69.9924 165.366C69.7107 164.595 69.2488 163.869 68.6292 163.234C67.9307 162.814 67.097 162.531 66.2745 162.519C66.5111 162.814 66.6688 163.098 66.8266 163.404C66.8378 163.449 66.8829 163.506 66.9167 163.563C67.0068 163.722 67.2434 163.994 67.5025 164.278C67.8631 164.675 68.1447 165.162 68.3362 165.684C68.4827 166.092 68.5728 166.523 68.5616 166.943C68.5616 167.215 68.539 167.499 68.5616 167.771C68.5954 168.429 68.5954 169.121 68.6292 169.779L68.6742 174.759L68.7644 179.511V180.283V187.474V190.072L68.8094 193.237C68.8207 194.655 68.7644 196.072 68.7982 197.49C68.8545 199.317 68.9108 201.131 68.9672 202.958C68.9897 203.933 69.046 204.909 68.9672 205.85C68.9446 206.122 68.9446 206.508 68.9672 206.814L69.0573 206.735L69.0911 206.826C69.1249 207.211 69.1474 207.597 69.1474 207.983C69.1361 209.038 69.1812 210.127 69.1361 211.193C69.1136 211.669 69.1023 212.146 69.1361 212.645C69.1699 213.201 69.1587 213.53 69.0798 213.813C68.8883 214.55 68.2912 214.959 67.5589 214.913C67.3674 214.913 66.973 214.811 66.5787 214.743L65.4183 214.516C64.9677 214.437 64.5057 214.403 64.0664 214.324L63.8298 214.278L62.106 213.927L60.4048 213.575C60.0556 213.496 59.7401 213.382 59.3909 213.337L56.2701 212.804L54.9745 212.588L49.5217 211.545L44.7223 210.671C42.8634 210.308 41.0044 209.99 39.1568 209.559C37.8612 209.276 36.5092 209.094 35.1911 208.845L32.2168 208.278L30.9099 208.017L29.5355 207.711L28.4314 207.529L24.5671 206.78L23.125 206.519C22.7419 206.451 22.4152 206.293 22.066 206.077C21.4013 205.669 20.8605 204.965 20.5901 204.205C20.4887 203.911 20.4436 203.638 20.4324 203.343V202.277L20.331 198.852L20.2634 195.006L20.207 190.514L20.1507 187.747L20.0831 184.173L19.9592 179.67L19.8691 176.086L19.7789 173.817C19.7564 173.613 19.7789 173.409 19.8015 173.205H19.7677L19.6099 161.805C19.6212 161.555 19.6437 161.328 19.655 161.067V160.659L19.6325 160.296V159.184L19.655 158.447C19.6888 157.88 19.6325 157.097 19.7113 156.746C19.8691 155.861 20.5112 155.271 21.39 155.271C21.728 155.248 22.3701 155.419 22.9109 155.509L24.5783 155.816L26.5386 156.122L31.2254 156.984C31.4282 157.029 31.6535 157.086 32.0478 157.165C32.1717 157.165 32.4647 157.233 32.7576 157.29L35.7206 157.88L41.2523 158.992L42.0071 159.15C43.1112 159.366 44.2604 159.57 45.3419 159.82C46.7615 160.16 48.1697 160.444 49.6118 160.693L53.7803 161.498L56.8109 162.122C57.4531 162.247 58.1178 162.304 58.7712 162.44C59.7176 162.633 60.6189 162.882 61.554 162.939C61.8582 162.939 62.1736 162.939 62.444 162.939C62.951 163.052 63.3791 163.121 63.8298 163.211C64.4381 163.336 65.9703 163.359 66.1281 163.268V163.132V163.098C65.9253 162.916 65.6887 162.735 65.4183 162.542C64.9226 162.224 64.4156 161.907 63.9312 161.601C63.4692 161.498 62.9961 161.442 62.6468 161.328C61.8244 161.079 61.002 160.931 60.1345 160.807C59.7401 160.727 59.3571 160.682 58.974 160.614L56.1349 160.092C55.0309 159.888 53.9493 159.808 52.8114 159.513C52.6312 159.479 52.3946 159.445 52.1918 159.411C50.6708 159.184 49.1724 159.014 47.629 158.742C45.8827 158.413 44.1477 158.084 42.3902 157.755C41.2185 157.54 40.0356 157.245 38.8639 157.109C38.1428 157.007 37.3091 156.87 36.5092 156.712L31.3042 155.657C29.8847 155.362 28.4877 155.044 27.0231 154.817C25.6261 154.59 24.1953 154.227 22.7757 153.955C22.3589 153.887 21.8857 153.751 21.3224 153.774C20.7929 153.796 20.2521 153.921 19.7789 154.227C18.81 154.817 18.303 155.918 18.2805 156.961C18.2805 157.948 18.3481 158.833 18.3481 159.774V162.86L18.3256 166.092L18.4044 171.571L18.3594 177.368C18.3594 179.16 18.3932 180.952 18.5058 182.449C18.5058 183.311 18.5058 183.913 18.5058 184.536C18.5058 185.693 18.5171 186.873 18.6636 187.939C18.7537 188.756 18.8438 189.539 18.8438 190.458L18.934 194.348C18.9452 195.052 18.934 195.743 18.9678 196.435C19.0016 197.332 19.0579 198.194 19.0016 199.09C19.0016 199.464 19.0016 199.895 19.0016 200.303L19.0804 202.425C19.0804 203.117 19.0579 204.013 19.3508 204.841C19.3733 204.897 19.3959 204.965 19.4071 205.011C19.7226 205.862 20.2972 206.599 21.0069 207.189C21.559 207.631 22.2913 207.96 23.0011 208.062L28.4764 209.083L34.425 210.206L35.7769 210.456L38.3231 210.921L44.0351 212.1L47.3924 212.77L50.6821 213.416L52.7213 213.813L56.0448 214.358L57.8587 214.698L64.2691 215.934C64.4494 215.968 64.6973 216.036 64.855 216.082C65.3282 216.241 65.8239 216.354 66.3421 216.467C66.8266 216.581 67.4575 216.728 68.0771 216.626C68.9784 216.524 69.8347 215.934 70.274 215.106C70.7472 214.312 70.7134 213.314 70.6796 212.599L70.6458 210.172L70.5557 203.922L70.4881 200.882C70.4656 200.44 70.4656 199.997 70.4543 199.6C70.4994 198.761 70.5219 198.023 70.5557 197.252C70.4994 196.957 70.4543 196.651 70.4092 196.322H70.443V194.643L70.4092 191.683V189.629C70.4092 189.21 70.4092 188.733 70.4318 188.359C70.4768 187.69 70.443 187.066 70.3754 186.465C70.4092 186.158 70.4318 185.864 70.4205 185.535C70.4205 184.707 70.398 183.89 70.398 183.096L70.4543 178.207C70.4543 177.799 70.3754 177.288 70.398 176.914C70.4543 176.108 70.4318 175.337 70.398 174.509V174.135V172.501L70.3754 171.923V168.168C70.3529 167.703 70.3642 167.397 70.3191 166.807C70.274 166.342 70.1726 165.877 70.0262 165.457" stroke="#2F1F49" stroke-width="0.5" stroke-linecap="round" stroke-linejoin="round"/>
<path d="M58.512 172.932C58.4669 172.808 58.3993 172.694 58.2641 172.592C57.8698 172.308 57.5656 172.274 57.2614 172.127L56.3376 171.787C56.2024 171.73 56.0109 171.696 55.8419 171.651C55.4588 171.582 55.0645 171.526 54.704 171.469L51.8874 170.856L49.1836 170.335L48.7329 170.233L44.6883 169.314L43.2237 168.985L41.4437 168.633C40.6438 168.44 39.8551 168.214 39.044 168.055C38.0075 167.885 36.9823 167.692 35.9345 167.499C35.3825 167.385 34.8304 167.317 34.3122 167.113C34.177 167.057 33.9404 167.045 33.7714 166.988L33.7489 166.909H33.7151C33.501 166.898 33.2644 166.864 33.0616 166.818C32.4532 166.66 31.8899 166.591 31.2365 166.399C30.7295 166.263 30.1887 166.16 29.7494 166.342C29.2762 166.512 28.9044 166.886 28.7354 167.329C28.6678 167.578 28.5889 167.805 28.6002 168.066V169.405L28.6227 169.983L28.6453 171.367C28.6453 171.639 28.7129 171.889 28.7241 172.161L28.7016 174.35C28.7016 174.554 28.6791 174.759 28.6565 174.951L28.7692 176.789L28.8143 177.549L28.9157 180.804C28.9495 181.746 28.9945 182.687 29.0283 183.64C29.0509 184.763 29.1072 185.852 29.0734 186.964C29.0734 187.746 29.1635 188.529 29.186 189.312L29.2424 191.081V191.875C29.2424 192.148 29.2424 192.409 29.2198 192.692C29.2311 192.93 29.2649 193.146 29.2649 193.35L29.31 195.641L29.3438 196.503C29.3438 196.719 29.3776 196.934 29.4452 197.139C29.5353 197.4 29.693 197.649 29.8845 197.842C30.1662 198.205 30.7858 198.409 31.09 198.42L31.9463 198.557C32.3518 198.636 32.7462 198.749 33.1743 198.829L35.1233 199.169L37.2977 199.611L39.8213 200.122L41.3873 200.428L43.4153 200.825L45.9727 201.29L48.0119 201.665C48.4512 201.744 48.8906 201.812 49.3187 201.869L49.6793 201.959V201.925L56.1123 203.253L56.5178 203.377L56.6868 203.423L56.946 203.479L57.6445 203.672C58.0275 203.774 58.4106 203.854 58.7486 203.786C59.2668 203.706 59.6611 203.332 59.8414 202.833C59.9202 202.629 59.954 202.39 59.954 202.152C59.954 201.551 59.9315 200.939 59.909 200.326L59.8076 198.33C59.7738 197.944 59.7287 197.547 59.7174 197.161L59.6161 194.394C59.6161 194.269 59.6161 194.133 59.6499 193.906C59.6499 193.838 59.6386 193.668 59.6273 193.497L59.5935 191.739L59.5597 188.45V188.007C59.5597 187.349 59.5034 186.68 59.5372 186.034C59.571 185.183 59.571 184.321 59.5259 183.47L59.4809 180.997V179.194C59.4471 178.808 59.3907 178.411 59.3907 178.014C59.3907 177.47 59.4809 176.914 59.3344 176.369L59.1541 175.87C59.1541 175.564 59.1541 175.326 59.1541 175.042C59.1541 174.815 59.0527 174.373 58.9401 174.067C58.8725 173.885 58.8049 173.738 58.7598 173.715H58.5908C58.4669 173.874 58.3542 174.021 58.219 174.203C58.0163 174.532 57.8135 174.849 57.6107 175.178C57.6107 175.45 57.6332 175.723 57.5994 175.938C57.5093 176.449 57.5431 176.925 57.5994 177.436C57.6107 177.674 57.6332 177.901 57.6445 178.139L57.7233 179.829C57.7233 180.487 57.8585 181.122 57.836 181.803L57.8698 182.166C57.9825 183.05 58.0951 183.947 58.1627 184.843C58.219 185.852 58.219 186.918 58.2754 187.951C58.3092 188.665 58.2641 189.346 58.3655 190.049C58.4331 190.492 58.4444 190.979 58.4556 191.444L58.4782 194.552C58.4782 195.414 58.4782 196.242 58.5232 197.116C58.5796 197.944 58.5232 198.817 58.5458 199.657L58.5796 201.812L58.5232 202.198L58.174 202.322C58.0275 202.311 57.9599 202.3 57.6219 202.232C57.0586 202.096 56.4841 201.959 55.8869 201.835C55.2898 201.687 54.6815 201.528 54.0731 201.404L50.9861 200.757C49.9271 200.508 48.8118 200.235 47.7302 199.974C46.7275 199.736 45.7136 199.543 44.8461 199.475C44.3616 199.362 44.0124 199.282 43.6856 199.203C43.0435 199.044 42.3675 198.908 41.7479 198.908C41.2747 198.908 40.8128 198.874 40.3058 198.783L38.0863 198.364C37.6808 198.284 37.2864 198.194 36.9147 198.137C36.3851 198.057 35.9007 197.989 35.4163 197.819C35.2135 197.74 34.9543 197.694 34.7403 197.649L33.5235 197.456L32.1716 197.173L31.5069 197.025C31.259 196.991 31.2478 196.98 31.1576 196.912C31.0788 196.832 31.0112 196.776 30.9774 196.685C30.9548 196.628 30.9323 196.56 30.9436 196.458L30.8196 193.214L30.7182 189.675L30.6845 188.858C30.6619 188.348 30.6281 187.849 30.6169 187.349V183.958L30.5943 181.95L30.5493 180.01L30.5042 178.785L30.369 176.823L30.3465 175.745L30.2451 171.923V171.571C30.369 170.993 30.3127 170.346 30.3239 169.745L30.2901 168.497C30.2338 168.248 30.3465 167.896 30.6394 167.885L31.0562 167.953L31.7097 168.1L35.2473 168.849L36.971 169.189C37.2076 169.234 37.4667 169.302 37.692 169.336C38.1539 169.484 38.5708 169.597 38.9989 169.745C39.1454 169.745 39.3482 169.722 39.5171 169.722V169.756C39.8439 169.836 40.1481 169.915 40.4635 169.983L42.1309 170.346L43.2913 170.618C43.5167 170.675 43.787 170.709 43.9898 170.8C44.3841 170.947 44.7109 171.004 45.0714 170.993C45.2404 171.072 45.4206 171.106 45.5896 171.163L46.9754 171.446C47.8767 171.673 48.8005 171.9 49.7243 172.138C49.9497 172.195 50.2651 172.206 50.4679 172.263C50.9185 172.422 51.3579 172.513 51.8311 172.581L52.0339 172.626L52.9465 172.842L53.2732 172.898L55.38 173.375C55.6391 173.42 55.8757 173.465 56.101 173.522C56.3827 173.59 56.6643 173.681 56.9685 173.738L57.4191 173.862L57.5318 173.885H57.5881H57.6219L57.6445 173.772C57.6445 173.772 57.7121 173.726 57.7459 173.738L58.0388 173.806C58.2416 173.738 58.4331 173.624 58.5458 173.409C58.5796 173.363 58.5908 173.307 58.6134 173.25C58.6359 173.171 58.6246 173.057 58.5908 172.932" fill="#2F1F49"/>
<path d="M58.512 172.932C58.4669 172.808 58.3993 172.694 58.2641 172.592C57.8698 172.308 57.5656 172.274 57.2614 172.127L56.3376 171.787C56.2024 171.73 56.0109 171.696 55.8419 171.651C55.4588 171.582 55.0645 171.526 54.704 171.469L51.8874 170.856L49.1836 170.335L48.7329 170.233L44.6883 169.314L43.2237 168.985L41.4437 168.633C40.6438 168.44 39.8551 168.214 39.044 168.055C38.0075 167.885 36.9823 167.692 35.9345 167.499C35.3825 167.385 34.8304 167.317 34.3122 167.113C34.177 167.057 33.9404 167.045 33.7714 166.988L33.7489 166.909H33.7151C33.501 166.898 33.2644 166.864 33.0616 166.818C32.4532 166.66 31.8899 166.591 31.2365 166.399C30.7295 166.263 30.1887 166.16 29.7494 166.342C29.2762 166.512 28.9044 166.886 28.7354 167.329C28.6678 167.578 28.5889 167.805 28.6002 168.066V169.405L28.6227 169.983L28.6453 171.367C28.6453 171.639 28.7129 171.889 28.7241 172.161L28.7016 174.35C28.7016 174.554 28.6791 174.759 28.6565 174.951L28.7692 176.789L28.8143 177.549L28.9157 180.804C28.9495 181.746 28.9945 182.687 29.0283 183.64C29.0509 184.763 29.1072 185.852 29.0734 186.964C29.0734 187.746 29.1635 188.529 29.186 189.312L29.2424 191.081V191.875C29.2424 192.148 29.2424 192.409 29.2198 192.692C29.2311 192.93 29.2649 193.146 29.2649 193.35L29.31 195.641L29.3438 196.503C29.3438 196.719 29.3776 196.934 29.4452 197.139C29.5353 197.4 29.693 197.649 29.8845 197.842C30.1662 198.205 30.7858 198.409 31.09 198.42L31.9463 198.557C32.3518 198.636 32.7462 198.749 33.1743 198.829L35.1233 199.169L37.2977 199.611L39.8213 200.122L41.3873 200.428L43.4153 200.825L45.9727 201.29L48.0119 201.665C48.4512 201.744 48.8906 201.812 49.3187 201.869L49.6793 201.959V201.925L56.1123 203.253L56.5178 203.377L56.6868 203.423L56.946 203.479L57.6445 203.672C58.0275 203.774 58.4106 203.854 58.7486 203.786C59.2668 203.706 59.6611 203.332 59.8414 202.833C59.9202 202.629 59.954 202.39 59.954 202.152C59.954 201.551 59.9315 200.939 59.909 200.326L59.8076 198.33C59.7738 197.944 59.7287 197.547 59.7174 197.161L59.6161 194.394C59.6161 194.269 59.6161 194.133 59.6499 193.906C59.6499 193.838 59.6386 193.668 59.6273 193.497L59.5935 191.739L59.5597 188.45V188.007C59.5597 187.349 59.5034 186.68 59.5372 186.034C59.571 185.183 59.571 184.321 59.5259 183.47L59.4809 180.997V179.194C59.4471 178.808 59.3907 178.411 59.3907 178.014C59.3907 177.47 59.4809 176.914 59.3344 176.369L59.1541 175.87C59.1541 175.564 59.1541 175.326 59.1541 175.042C59.1541 174.815 59.0527 174.373 58.9401 174.067C58.8725 173.885 58.8049 173.738 58.7598 173.715H58.5908C58.4669 173.874 58.3542 174.021 58.219 174.203C58.0163 174.532 57.8135 174.849 57.6107 175.178C57.6107 175.45 57.6332 175.723 57.5994 175.938C57.5093 176.449 57.5431 176.925 57.5994 177.436C57.6107 177.674 57.6332 177.901 57.6445 178.139L57.7233 179.829C57.7233 180.487 57.8585 181.122 57.836 181.803L57.8698 182.166C57.9825 183.05 58.0951 183.947 58.1627 184.843C58.219 185.852 58.219 186.918 58.2754 187.951C58.3092 188.665 58.2641 189.346 58.3655 190.049C58.4331 190.492 58.4444 190.979 58.4556 191.444L58.4782 194.552C58.4782 195.414 58.4782 196.242 58.5232 197.116C58.5796 197.944 58.5232 198.817 58.5458 199.657L58.5796 201.812L58.5232 202.198L58.174 202.322C58.0275 202.311 57.9599 202.3 57.6219 202.232C57.0586 202.096 56.4841 201.959 55.8869 201.835C55.2898 201.687 54.6815 201.528 54.0731 201.404L50.9861 200.757C49.9271 200.508 48.8118 200.235 47.7302 199.974C46.7275 199.736 45.7136 199.543 44.8461 199.475C44.3616 199.362 44.0124 199.282 43.6856 199.203C43.0435 199.044 42.3675 198.908 41.7479 198.908C41.2747 198.908 40.8128 198.874 40.3058 198.783L38.0863 198.364C37.6808 198.284 37.2864 198.194 36.9147 198.137C36.3851 198.057 35.9007 197.989 35.4163 197.819C35.2135 197.74 34.9543 197.694 34.7403 197.649L33.5235 197.456L32.1716 197.173L31.5069 197.025C31.259 196.991 31.2478 196.98 31.1576 196.912C31.0788 196.832 31.0112 196.776 30.9774 196.685C30.9548 196.628 30.9323 196.56 30.9436 196.458L30.8196 193.214L30.7182 189.675L30.6845 188.858C30.6619 188.348 30.6281 187.849 30.6169 187.349V183.958L30.5943 181.95L30.5493 180.01L30.5042 178.785L30.369 176.823L30.3465 175.745L30.2451 171.923V171.571C30.369 170.993 30.3127 170.346 30.3239 169.745L30.2901 168.497C30.2338 168.248 30.3465 167.896 30.6394 167.885L31.0562 167.953L31.7097 168.1L35.2473 168.849L36.971 169.189C37.2076 169.234 37.4667 169.302 37.692 169.336C38.1539 169.484 38.5708 169.597 38.9989 169.745C39.1454 169.745 39.3482 169.722 39.5171 169.722V169.756C39.8439 169.836 40.1481 169.915 40.4635 169.983L42.1309 170.346L43.2913 170.618C43.5167 170.675 43.787 170.709 43.9898 170.8C44.3841 170.947 44.7109 171.004 45.0714 170.993C45.2404 171.072 45.4206 171.106 45.5896 171.163L46.9754 171.446C47.8767 171.673 48.8005 171.9 49.7243 172.138C49.9497 172.195 50.2651 172.206 50.4679 172.263C50.9185 172.422 51.3579 172.513 51.8311 172.581L52.0339 172.626L52.9465 172.842L53.2732 172.898L55.38 173.375C55.6391 173.42 55.8757 173.465 56.101 173.522C56.3827 173.59 56.6643 173.681 56.9685 173.738L57.4191 173.862L57.5318 173.885H57.5881H57.6219L57.6445 173.772C57.6445 173.772 57.7121 173.726 57.7459 173.738L58.0388 173.806C58.2416 173.738 58.4331 173.624 58.5458 173.409C58.5796 173.363 58.5908 173.307 58.6134 173.25C58.6359 173.171 58.6246 173.057 58.5908 172.932" stroke="#2F1F49" stroke-width="0.5" stroke-linecap="round" stroke-linejoin="round"/>
<path d="M156.911 92.2338L156.305 93.1769L155.679 94.1304C155.457 94.4657 155.194 94.7905 155.003 95.1258C154.518 95.9536 153.842 96.6033 153.337 97.3892C152.832 97.8607 152.458 98.4998 152.024 99.0552C151.741 99.4115 151.439 99.7468 151.146 100.103L150.621 100.742L149.581 102.073C148.097 103.99 146.582 105.898 145.058 107.773C144.714 108.224 144.361 108.685 144.008 109.135C143.957 109.209 143.927 109.292 143.876 109.376C143.836 109.439 143.806 109.523 143.755 109.575C143.351 109.995 143.038 110.487 142.655 110.927L141.635 112.069C141.473 112.258 141.302 112.436 141.15 112.635C140.625 113.306 140.05 113.924 139.474 114.532C139.282 114.731 139.131 114.972 138.949 115.192C138.212 116.03 137.465 116.868 136.718 117.686L135.395 119.153C135.032 119.551 134.648 119.928 134.264 120.305C133.861 120.703 133.447 121.091 133.093 121.552C132.952 121.741 132.72 121.908 132.538 122.097C131.983 122.663 131.377 123.124 130.852 123.753C130.509 124.161 130.105 124.538 129.721 124.926C129.337 125.314 128.964 125.712 128.56 126.079C127.853 126.718 127.187 127.399 126.48 128.028C126.056 128.394 125.652 128.814 125.248 129.212C124.986 129.474 124.723 129.694 124.431 129.914C124.067 130.197 123.724 130.542 123.37 130.857C122.977 131.192 122.613 131.59 122.179 131.873C122.139 131.894 122.098 131.936 122.068 131.968C121.462 132.649 120.745 133.204 120.059 133.791C119.625 134.199 119.18 134.608 118.746 135.006L117.333 136.243C116.798 136.735 116.273 137.228 115.737 137.72L115.303 138.129L113.375 139.826C113.254 139.931 113.112 140.025 112.991 140.13L112.537 140.497C112.486 140.539 112.436 140.602 112.385 140.623C111.941 140.874 111.537 141.23 111.123 141.555L109.73 142.592C109.649 142.645 109.589 142.739 109.508 142.813C109.387 142.938 109.276 143.064 109.145 143.169C108.428 143.724 107.67 144.196 106.984 144.803C106.974 144.814 106.954 144.835 106.943 144.835C106.368 145.107 105.833 145.621 105.267 145.925C104.904 146.113 104.581 146.396 104.238 146.658C103.925 146.91 103.591 147.14 103.258 147.36C103.006 147.528 102.733 147.643 102.531 147.905C102.481 147.968 102.319 148.052 102.218 148.104C101.734 148.377 101.289 148.691 100.956 149.11C100.916 149.162 100.845 149.225 100.785 149.267C100.038 149.812 99.3207 150.388 98.6139 150.965C98.2908 151.227 97.9072 151.436 97.5437 151.646C97.2408 151.824 96.9379 151.981 96.635 152.149L95.4638 152.788C95.2619 152.893 95.0902 153.008 94.9287 153.186C94.7873 153.333 94.5955 153.479 94.4239 153.616C94.3835 153.647 94.2926 153.71 94.2623 153.699C94.0907 153.679 93.8282 153.836 93.6364 153.878C93.4041 153.93 93.2527 153.899 93.2224 153.731C93.182 153.448 93.3234 153.144 93.7676 152.735C93.909 152.61 94.0301 152.463 94.1109 152.337C94.4542 151.803 95.06 151.321 95.6254 150.891C96.11 150.525 96.5643 150.137 97.0691 149.791C97.7153 149.351 98.3312 148.859 98.9572 148.397L100.35 147.392C101.189 146.763 102.027 146.092 102.885 145.516C103.49 145.097 104.076 144.604 104.712 144.269C104.914 144.164 105.136 143.965 105.338 143.818C105.611 143.619 105.893 143.42 106.156 143.211C106.348 143.064 106.53 142.896 106.701 142.729C106.933 142.498 107.156 142.31 107.458 142.142C107.701 141.995 107.953 141.744 108.195 141.545C108.317 141.44 108.428 141.293 108.549 141.22C109.175 140.822 109.75 140.329 110.336 139.847C110.72 139.533 111.123 139.25 111.507 138.915L113.799 137.008C113.971 136.861 114.132 136.693 114.304 136.536C114.738 136.148 115.162 135.782 115.637 135.457C115.919 135.258 116.192 134.996 116.475 134.776L117.888 133.613C118.181 133.361 118.504 133.131 118.777 132.858C119.221 132.418 119.675 132.009 120.16 131.622L120.331 131.454L120.766 131.098C120.766 131.098 120.877 131.035 120.917 130.993C121.412 130.469 121.987 130.071 122.512 129.578C122.845 129.264 123.199 128.971 123.542 128.667L124.188 128.07L124.925 127.43C125.41 126.99 125.874 126.519 126.339 126.058C126.409 125.995 126.46 125.901 126.531 125.838C127.227 125.167 127.934 124.507 128.61 123.815L130.256 122.097C130.65 121.699 131.084 121.353 131.478 120.955C131.7 120.735 131.962 120.557 132.124 120.263C132.175 120.169 132.316 120.043 132.417 119.938C132.74 119.645 133.063 119.362 133.376 119.058C133.598 118.828 133.8 118.576 134.002 118.314C134.073 118.21 134.153 118.105 134.224 118L134.951 117.13L136.385 115.485C137.061 114.689 137.738 113.903 138.414 113.117C138.727 112.771 139.04 112.415 139.353 112.059L140.656 110.602C140.787 110.456 140.888 110.288 140.999 110.131C141.271 109.722 141.574 109.345 141.897 108.968C142.342 108.465 142.756 107.93 143.19 107.406L143.614 106.935L145.34 104.923C145.623 104.588 145.936 104.284 146.229 103.97L146.875 103.215L147.602 102.356L147.965 101.905C148.056 101.801 148.167 101.685 148.268 101.601C148.581 101.329 148.874 101.015 149.147 100.658C149.752 99.8935 150.358 99.1286 150.934 98.3427C151.368 97.7664 151.772 97.1586 152.176 96.5718C152.428 96.2156 152.691 95.8908 152.973 95.5764C153.115 95.4088 153.256 95.2201 153.387 95.0315C153.72 94.5391 154.043 94.0361 154.447 93.6065C154.609 93.4388 154.78 93.3026 154.932 93.1245C155.104 92.9359 155.275 92.7263 155.417 92.5167C155.972 91.689 156.568 91.1546 157.183 90.683C157.496 90.442 157.648 90.6621 157.486 91.0288C157.365 91.3222 157.234 91.6156 157.113 91.909C157.062 92.0243 157.002 92.1395 156.941 92.2548H156.921L156.911 92.2338Z" fill="#2F1F49"/>
<path d="M102.709 154.057L102.462 154.126C102.383 154.148 102.293 154.171 102.214 154.194C102.124 154.216 102.033 154.194 101.955 154.25C101.752 154.364 101.549 154.205 101.335 154.284C101.177 154.16 101.031 154.25 100.873 154.25C100.772 154.25 100.67 154.205 100.569 154.194C100.513 154.194 100.445 154.182 100.389 154.182C100.265 154.182 100.141 154.182 100.017 154.194C99.4873 154.239 98.9578 154.284 98.4283 154.341C98.3043 154.352 98.1804 154.398 98.0565 154.443C98.0339 154.443 98.0227 154.489 98.0001 154.511C97.9889 154.523 97.9663 154.557 97.9551 154.557C97.8312 154.511 97.7072 154.613 97.572 154.613H97.234C97.234 154.613 97.1214 154.591 97.0763 154.613C96.8961 154.67 96.7045 154.659 96.5243 154.636C96.4679 154.636 96.4003 154.681 96.344 154.693C96.0962 154.715 95.8596 154.749 95.6117 154.772C95.4652 154.783 95.3188 154.817 95.1836 154.829C95.116 154.829 94.8231 154.829 94.6203 154.806C94.3837 154.795 94.1696 154.772 93.888 154.851C93.7753 154.886 93.6852 154.829 93.5725 154.829C93.2458 154.829 93.0317 154.727 92.6262 154.817C92.367 154.874 92.1643 154.863 91.9502 154.863V154.817C92.0291 154.602 92.0741 154.398 92.1643 154.171C92.322 153.774 92.4121 153.4 92.5924 153.014C92.6938 152.787 92.7276 152.572 92.7952 152.345C92.829 152.197 92.8966 152.061 92.9754 151.936C93.0543 151.834 93.0655 151.743 93.1106 151.641C93.1669 151.539 93.1557 151.415 93.2683 151.324C93.2683 151.324 93.2796 151.301 93.2796 151.29C93.2345 151.063 93.3923 150.904 93.4486 150.711C93.4937 150.586 93.4824 150.45 93.5162 150.314C93.55 150.178 93.6176 150.053 93.6401 149.917C93.6739 149.758 93.6739 149.588 93.6965 149.429C93.6965 149.384 93.6965 149.339 93.6965 149.293C93.7303 149.1 93.7641 148.919 93.7979 148.726C93.7979 148.692 93.8317 148.658 93.8429 148.624L93.8993 148.511C93.8993 148.511 93.8993 148.477 93.8993 148.465C94.0232 148.386 94.0344 148.261 94.0795 148.159C94.1358 148.034 94.1922 147.932 94.2598 147.819C94.2598 147.796 94.2485 147.762 94.2485 147.739C94.2485 147.694 94.2147 147.649 94.226 147.615C94.2936 147.422 94.4513 147.263 94.4513 147.059C94.6316 146.957 94.5865 146.775 94.7442 146.673C94.8456 146.605 94.8456 146.514 94.8681 146.424C94.8907 146.333 94.9357 146.253 94.9808 146.174C95.0146 146.117 95.1047 146.072 95.0371 145.981C95.0146 145.958 95.0597 145.936 95.0935 145.913C95.1949 145.822 95.2625 145.709 95.1385 145.55C95.1273 145.527 95.1273 145.505 95.1385 145.493C95.1949 145.301 95.2061 145.085 95.2061 144.87C95.2061 144.779 95.285 144.699 95.3413 144.62C95.3864 144.552 95.4652 144.495 95.5216 144.438L95.7582 144.2C95.7582 144.2 95.8145 144.121 95.7807 144.053C95.7469 143.996 95.7582 143.939 95.7469 143.894C95.7469 143.883 95.7582 143.86 95.7807 143.86C95.9046 143.86 95.9497 143.815 96.0398 143.792C96.1525 143.769 96.2652 143.792 96.4229 143.849C96.682 143.962 96.8397 144.075 96.8848 144.234C96.8961 144.28 96.9411 144.336 96.9862 144.382C97.2002 144.586 97.2115 144.767 97.189 144.938C97.1664 145.074 97.189 145.221 97.1439 145.346C97.0876 145.516 97.0651 145.686 97.02 145.856L96.9073 146.219C96.8397 146.446 96.8172 146.684 96.6933 146.889C96.6031 147.036 96.5919 147.206 96.4229 147.32C96.3665 147.354 96.3778 147.422 96.344 147.478C96.3102 147.546 96.2764 147.615 96.2539 147.683C96.2426 147.739 96.2426 147.796 96.2539 147.853C96.2651 147.932 96.2539 148 96.1863 148.057C96.13 148.102 96.1525 148.193 96.1412 148.261C96.1412 148.295 96.175 148.352 96.1412 148.375C95.9948 148.499 95.9835 148.669 95.9384 148.84C95.9046 148.942 95.837 149.044 95.8145 149.146C95.7582 149.361 95.6793 149.566 95.6117 149.781C95.6004 149.826 95.6117 149.883 95.6004 149.94C95.5779 150.065 95.5441 150.189 95.4427 150.292C95.3864 150.348 95.3751 150.439 95.3413 150.518C95.285 150.643 95.2174 150.768 95.1611 150.881C95.1273 150.961 95.0709 151.029 95.0597 151.12C95.0597 151.267 95.0146 151.392 94.9357 151.517C94.9357 151.528 94.9357 151.551 94.9245 151.573C94.9019 151.607 94.8794 151.653 94.8569 151.687C94.8569 151.698 94.8231 151.698 94.8231 151.721C94.8231 151.891 94.6879 152.004 94.6541 152.163C94.6316 152.254 94.564 152.367 94.5302 152.424L94.4964 152.503C94.4964 152.503 94.44 152.56 94.4288 152.594C94.4062 152.662 94.395 152.719 94.3837 152.787C94.3837 152.787 94.4175 152.787 94.4062 152.798C94.3837 152.889 94.3386 152.98 94.3161 153.059C94.4062 153.059 94.5076 153.014 94.5752 153.014C94.6203 153.014 94.6203 153.071 94.6654 153.082C94.6879 153.082 94.6879 153.161 94.7667 153.059C94.7893 153.025 94.8005 153.037 94.8118 153.037C94.8456 153.059 94.8681 153.116 94.9245 153.116C94.9695 153.116 94.9808 153.071 95.0371 153.048C95.0709 153.037 95.0935 153.003 95.116 152.991C95.1949 152.957 95.285 152.934 95.3639 152.912C95.5328 152.878 95.6793 152.844 95.837 152.821C96.0624 152.776 96.2877 152.708 96.5243 152.696C96.6257 152.696 96.7271 152.685 96.8397 152.685C96.9862 152.685 97.1326 152.696 97.2678 152.685C97.3129 152.685 97.358 152.651 97.3918 152.617C97.4932 152.549 97.6058 152.526 97.7072 152.526C97.8537 152.526 98.0001 152.492 98.1579 152.481C98.2029 152.481 98.248 152.492 98.2931 152.492C98.4846 152.492 98.6874 152.492 98.8789 152.526C98.9803 152.526 99.0704 152.583 99.1718 152.606C99.2394 152.617 99.3183 152.617 99.3859 152.628L99.6337 152.651C99.6337 152.651 99.7239 152.651 99.7577 152.651C99.7915 152.651 99.8253 152.674 99.8478 152.696C99.9379 152.787 100.039 152.81 100.129 152.81C100.344 152.81 100.558 152.81 100.772 152.787C100.929 152.776 101.087 152.719 101.245 152.685C101.335 152.662 101.436 152.685 101.526 152.719C101.572 152.742 101.628 152.73 101.673 152.719C101.808 152.685 101.932 152.64 102.067 152.719C102.124 152.753 102.169 152.81 102.214 152.832C102.27 152.855 102.326 152.878 102.383 152.866C102.597 152.821 102.777 153.014 102.946 153.263C103.036 153.388 103.014 153.672 102.935 153.763C102.878 153.831 102.8 153.921 102.732 154.001C102.709 154.035 102.676 154.046 102.653 154.069V154.046L102.709 154.057Z" fill="#2F1F49"/>
<path d="M150.536 89.8268L150.738 89.6665C150.808 89.6087 150.878 89.5509 150.94 89.5061C151.01 89.4483 151.099 89.4334 151.155 89.3551C151.295 89.1705 151.545 89.2321 151.703 89.0792C151.896 89.1389 151.996 88.9842 152.146 88.9245C152.242 88.8854 152.346 88.891 152.444 88.863C152.5 88.8537 152.564 88.8313 152.616 88.7997C152.733 88.7456 152.84 88.7046 152.955 88.6393C153.428 88.3877 153.889 88.1379 154.36 87.875C154.475 87.8098 154.564 87.7259 154.664 87.6401C154.686 87.6364 154.679 87.5916 154.695 87.5543C154.703 87.5301 154.708 87.4946 154.719 87.4928C154.853 87.4704 154.934 87.3418 155.04 87.2896L155.351 87.1684C155.351 87.1684 155.459 87.1274 155.499 87.0976C155.65 86.9689 155.822 86.9055 155.996 86.8534C156.052 86.844 156.083 86.7583 156.146 86.7247C156.367 86.6073 156.574 86.4805 156.784 86.3649C156.91 86.2978 157.032 86.2083 157.158 86.1412C157.221 86.1076 157.489 86.0051 157.684 85.938C157.91 85.8541 158.106 85.7982 158.338 85.6099C158.429 85.5372 158.533 85.5428 158.629 85.5037C158.929 85.3844 159.168 85.3788 159.505 85.1383C159.72 84.9873 159.915 84.9202 160.106 84.8307L160.113 84.8755C160.137 85.09 160.183 85.3007 160.179 85.5543C160.182 85.9907 160.254 86.3581 160.234 86.7871C160.228 87.0295 160.276 87.2514 160.314 87.4864C160.338 87.6319 160.329 87.7829 160.309 87.9359C160.271 88.0571 160.31 88.154 160.293 88.2603C160.279 88.3778 160.343 88.4935 160.271 88.6091C160.271 88.6091 160.275 88.6315 160.276 88.6426C160.399 88.8292 160.319 89.038 160.341 89.2413C160.363 89.3756 160.405 89.4949 160.428 89.6292C160.45 89.7635 160.438 89.9034 160.461 90.0376C160.486 90.1943 160.558 90.3547 160.606 90.5076C160.614 90.5524 160.643 90.5934 160.651 90.6382C160.693 90.8265 160.736 91.0149 160.776 91.1921C160.782 91.2256 160.776 91.2611 160.771 91.2965L160.769 91.4233C160.769 91.4233 160.785 91.455 160.776 91.4681C160.693 91.5855 160.735 91.7049 160.731 91.8205C160.729 91.9473 160.716 92.076 160.692 92.2066C160.696 92.2289 160.722 92.2476 160.736 92.2681C160.764 92.298 160.794 92.339 160.799 92.3726C160.821 92.5758 160.729 92.7754 160.808 92.9805C160.675 93.1409 160.791 93.2938 160.68 93.4504C160.617 93.553 160.654 93.6388 160.669 93.7283C160.683 93.8178 160.676 93.9111 160.666 93.9931C160.655 94.064 160.587 94.133 160.689 94.1964C160.714 94.2151 160.687 94.2542 160.668 94.2803C160.609 94.4053 160.596 94.5339 160.772 94.631C160.796 94.6384 160.799 94.6608 160.803 94.6832C160.836 94.8846 160.903 95.0804 160.982 95.2856C161.019 95.3714 160.978 95.4702 160.949 95.5672C160.928 95.6511 160.884 95.7275 160.852 95.8133C160.811 95.9122 160.772 96.0222 160.72 96.1229C160.694 96.1732 160.702 96.218 160.755 96.2665C160.807 96.3038 160.816 96.3597 160.846 96.4008C160.848 96.412 160.852 96.4343 160.829 96.4381C160.711 96.4809 160.7 96.5518 160.616 96.6003C160.523 96.6618 160.403 96.6935 160.244 96.6972C159.959 96.699 159.768 96.6504 159.668 96.5292C159.638 96.4882 159.575 96.4527 159.514 96.4285C159.235 96.3259 159.15 96.1561 159.113 96.0013C159.08 95.8689 159.002 95.744 158.991 95.6078C158.974 95.4381 158.934 95.2609 158.906 95.0931C158.886 94.97 158.875 94.8339 158.866 94.7089C158.838 94.4721 158.766 94.2427 158.807 94.0058C158.826 93.8417 158.776 93.6776 158.883 93.4986C158.92 93.4464 158.887 93.383 158.889 93.3251C158.887 93.245 158.898 93.1741 158.886 93.0958C158.876 93.0398 158.856 92.9857 158.825 92.9335C158.778 92.8608 158.758 92.8067 158.801 92.719C158.836 92.6556 158.779 92.5848 158.766 92.5064C158.76 92.4729 158.708 92.4356 158.714 92.4001C158.788 92.2267 158.738 92.0626 158.722 91.8929C158.703 91.781 158.731 91.6728 158.713 91.5609C158.676 91.3371 158.674 91.1189 158.65 90.9045C158.643 90.8597 158.612 90.8075 158.602 90.7515C158.582 90.6284 158.56 90.4942 158.608 90.3711C158.64 90.2853 158.605 90.2107 158.614 90.1286C158.625 89.9888 158.625 89.8508 158.638 89.7221C158.646 89.6289 158.666 89.5449 158.629 89.4592C158.574 89.3305 158.563 89.1943 158.585 89.0526C158.582 89.0302 158.58 89.019 158.576 88.9966C158.569 88.9519 158.585 88.9146 158.589 88.868C158.587 88.8568 158.619 88.84 158.617 88.8288C158.547 88.6796 158.621 88.5062 158.606 88.3477C158.591 88.2581 158.614 88.1164 158.616 88.0586L158.625 87.9766C158.625 87.9766 158.658 87.902 158.653 87.8684C158.642 87.8012 158.631 87.7341 158.622 87.6782L158.588 87.6837C158.573 87.5942 158.579 87.4898 158.564 87.4003C158.49 87.4357 158.401 87.5196 158.348 87.5401C158.303 87.5476 158.285 87.5047 158.229 87.514C158.207 87.5177 158.172 87.4431 158.148 87.5736C158.142 87.6091 158.12 87.6128 158.107 87.6035C158.072 87.5979 158.02 87.5606 157.975 87.568C157.931 87.5755 157.94 87.6314 157.89 87.6743C157.871 87.7004 157.855 87.7377 157.834 87.7526C157.775 87.8085 157.705 87.8663 157.634 87.9241C157.501 88.0155 157.367 88.1068 157.234 88.1982C157.039 88.3343 156.858 88.4797 156.658 88.5823C156.563 88.6326 156.469 88.6829 156.372 88.7221C156.233 88.7799 156.104 88.8246 155.976 88.8805C155.933 88.8992 155.907 88.9495 155.879 88.9886C155.805 89.0931 155.724 89.1527 155.618 89.2049C155.479 89.2627 155.357 89.3522 155.231 89.4193C155.188 89.438 155.142 89.4342 155.101 89.464C154.918 89.5293 154.736 89.6057 154.553 89.6709C154.455 89.6989 154.353 89.7045 154.264 89.7194C154.186 89.7324 154.123 89.766 154.058 89.7883L153.819 89.8629C153.819 89.8629 153.745 89.8983 153.701 89.9058C153.667 89.9113 153.634 89.9169 153.597 89.9001C153.477 89.8628 153.388 89.8777 153.291 89.9169C153.1 90.0063 152.897 90.0865 152.708 90.1872C152.572 90.2673 152.441 90.3699 152.309 90.4724C152.228 90.5321 152.139 90.547 152.037 90.5526C151.981 90.5619 151.937 90.5693 151.898 90.6103C151.785 90.6868 151.687 90.7837 151.535 90.7632C151.477 90.7613 151.413 90.7147 151.355 90.7128C151.298 90.7109 151.229 90.7109 151.177 90.7426C150.994 90.8768 150.759 90.7668 150.503 90.6026C150.376 90.5205 150.276 90.2613 150.324 90.1382C150.354 90.0412 150.384 89.9443 150.413 89.8473C150.43 89.81 150.449 89.7839 150.467 89.7578L150.471 89.7802L150.536 89.8268Z" fill="#2F1F49"/>
<path d="M120.397 107.607C120.397 107.607 120.499 107.641 120.521 107.686C120.611 107.834 120.769 107.868 120.904 107.925C121.163 108.027 121.445 108.095 121.704 108.22C121.907 108.31 122.076 108.469 122.267 108.582C122.414 108.662 122.56 108.719 122.707 108.787C122.831 108.843 122.943 108.923 123.056 108.991C123.372 109.184 123.698 109.377 124.014 109.569C124.048 109.592 124.081 109.603 124.126 109.615C124.352 109.717 124.577 109.808 124.802 109.91C125.028 110.023 125.253 110.159 125.49 110.273C125.58 110.318 125.692 110.341 125.783 110.375C125.828 110.386 125.861 110.42 125.895 110.454C126.008 110.613 126.132 110.783 126.233 110.953C126.267 111.021 126.278 111.146 126.267 111.237C126.233 111.464 126.166 111.691 126.109 111.929C125.94 112.042 125.783 112.156 125.625 112.258C125.49 112.144 125.354 112.042 125.23 111.951C125.174 111.917 125.107 111.906 125.05 111.872C124.881 111.781 124.712 111.679 124.543 111.588C124.521 111.577 124.487 111.577 124.464 111.554C124.397 111.509 124.318 111.464 124.25 111.418C124.228 111.418 124.217 111.396 124.194 111.396C124.07 111.373 123.957 111.316 123.867 111.203C123.833 111.157 123.732 111.18 123.676 111.146C123.462 111.01 123.259 110.851 123.045 110.704C122.943 110.636 122.82 110.59 122.707 110.534C122.662 110.511 122.628 110.465 122.594 110.42C122.482 110.431 122.391 110.42 122.324 110.318C122.279 110.261 122.211 110.239 122.155 110.205C122.065 110.148 121.975 110.091 121.884 110.034C121.749 109.966 121.614 109.898 121.479 109.819C121.4 109.774 121.332 109.717 121.265 109.671C121.265 109.66 121.265 109.649 121.276 109.637C121.208 109.649 121.152 109.671 121.096 109.683C121.006 109.592 120.916 109.501 120.825 109.399C120.769 109.377 120.713 109.342 120.645 109.32C120.499 109.252 120.363 109.195 120.217 109.127C119.924 108.991 119.642 108.843 119.35 108.696C119.237 108.639 119.124 108.571 119.012 108.526C118.786 108.435 118.55 108.367 118.336 108.265C118.189 108.197 118.02 108.151 117.93 107.981C117.919 107.947 117.885 107.925 117.851 107.913C117.536 107.777 117.231 107.652 116.916 107.516C116.826 107.482 116.736 107.437 116.646 107.414C116.477 107.369 116.296 107.335 116.127 107.278C116.026 107.244 115.925 107.199 115.823 107.165C115.665 107.097 115.508 107.028 115.35 106.949C115.192 106.87 115.023 106.79 114.866 106.711C114.595 106.575 114.336 106.416 114.066 106.291C113.942 106.234 113.807 106.2 113.683 106.155C113.615 106.132 113.547 106.11 113.48 106.087C113.187 105.974 112.894 105.849 112.601 105.735C112.331 105.633 112.06 105.531 111.79 105.429C111.7 105.395 111.598 105.372 111.508 105.338C111.283 105.225 111.069 105.111 110.844 104.998C110.742 104.953 110.641 104.93 110.539 104.885C110.483 104.862 110.415 104.839 110.382 104.794C110.28 104.68 110.156 104.635 110.021 104.612C109.92 104.59 109.83 104.51 109.728 104.476C109.548 104.397 109.356 104.329 109.176 104.249C109.052 104.193 108.917 104.193 108.771 104.215C108.579 104.238 108.41 104.159 108.252 104.079C108.173 104.034 108.095 103.977 107.982 103.909C107.734 103.886 107.475 103.784 107.238 103.637C106.979 103.478 106.743 103.285 106.484 103.138C106.236 102.99 105.977 102.9 105.717 102.763C105.571 102.684 105.436 102.582 105.289 102.491C105.154 102.4 105.019 102.31 104.872 102.242C104.749 102.174 104.602 102.151 104.467 102.094C104.219 101.981 103.96 101.879 103.712 101.754C103.509 101.652 103.329 101.504 103.115 101.448C102.89 101.391 102.698 101.266 102.495 101.164C102.247 101.039 102.011 100.903 101.752 100.79C101.639 100.733 101.515 100.688 101.391 100.688C101.188 100.688 101.042 100.563 100.862 100.506C100.603 100.415 100.355 100.279 100.084 100.2C99.8477 100.132 99.5886 100.132 99.3407 100.109C99.3069 100.109 99.2731 100.109 99.2393 100.086C99.0929 99.9617 98.8901 99.9957 98.7324 99.9277C98.5972 99.8709 98.4507 99.8256 98.3043 99.7689C98.2479 99.7462 98.1916 99.7235 98.124 99.7235C97.9775 99.7121 97.8536 99.6668 97.7747 99.5306C97.7409 99.4739 97.6621 99.4626 97.5945 99.4286C97.5945 99.213 97.5945 98.9975 97.6057 98.7707C97.6057 98.6459 97.617 98.5098 97.6395 98.3736C97.6395 98.3283 97.6733 98.2716 97.7071 98.2262C97.7747 98.1241 98.0902 97.9993 98.1803 98.0447C98.2479 98.0787 98.3042 98.1014 98.3831 98.1354C98.4394 98.1127 98.507 98.0787 98.5746 98.0447C98.7549 97.988 98.8563 98.1354 98.9915 98.2035C99.0816 98.2489 99.2055 98.2375 99.2957 98.2829C99.4421 98.3396 99.5773 98.4304 99.7238 98.4984C99.9266 98.5892 100.118 98.6913 100.332 98.7593C100.546 98.8387 100.749 98.9295 100.941 99.0769C101.087 99.179 101.256 99.2357 101.414 99.3038C101.448 99.3151 101.481 99.3492 101.515 99.3605C101.774 99.4853 102.045 99.6101 102.304 99.7348C102.45 99.8029 102.585 99.8709 102.732 99.9277C102.777 99.9503 102.822 99.9617 102.833 99.9617C102.89 99.9957 102.912 100.03 102.946 100.041C103.183 100.132 103.408 100.223 103.644 100.302C103.746 100.336 103.858 100.336 103.96 100.359C104.129 100.404 104.298 100.461 104.467 100.529C104.827 100.665 105.165 100.858 105.47 101.119C105.503 101.141 105.537 101.153 105.571 101.175C105.605 101.198 105.627 101.232 105.661 101.266C106.191 101.527 106.72 101.777 107.25 102.037C107.25 102.037 107.25 102.026 107.25 102.015C107.272 102.037 107.295 102.072 107.328 102.083C107.441 102.117 107.565 102.14 107.666 102.185C107.835 102.253 108.004 102.321 108.185 102.389C108.399 102.48 108.624 102.559 108.838 102.65C109.007 102.718 109.176 102.797 109.345 102.877C109.48 102.934 109.604 102.99 109.739 103.058C109.954 103.16 110.156 103.251 110.37 103.353C110.551 103.444 110.72 103.535 110.9 103.614C111.058 103.682 111.238 103.728 111.396 103.796C111.497 103.841 111.587 103.932 111.688 103.966C111.981 104.068 112.274 104.147 112.567 104.249C112.759 104.317 112.939 104.42 113.131 104.499C113.187 104.522 113.254 104.522 113.3 104.544C113.367 104.578 113.423 104.624 113.48 104.658C113.536 104.692 113.604 104.714 113.671 104.737C113.818 104.794 113.964 104.862 114.111 104.919C114.314 104.987 114.539 105.009 114.708 105.123C114.956 105.282 115.237 105.384 115.508 105.497C115.744 105.599 115.992 105.667 116.229 105.758C116.499 105.86 116.758 105.985 117.029 106.087C117.096 106.11 117.153 106.132 117.22 106.155C117.378 106.2 117.536 106.246 117.693 106.303C117.738 106.325 117.772 106.382 117.829 106.405C117.998 106.507 118.167 106.597 118.336 106.688C118.403 106.722 118.482 106.7 118.55 106.722C118.662 106.768 118.775 106.824 118.888 106.881C119.057 106.96 119.214 107.051 119.372 107.131C119.507 107.199 119.665 107.244 119.778 107.346C119.902 107.471 120.071 107.516 120.206 107.607C120.251 107.641 120.318 107.641 120.375 107.652C120.375 107.652 120.386 107.652 120.397 107.652V107.607Z" fill="#2F1F49"/>
<path d="M111.058 104.556C111.091 104.352 111.103 104.057 111.17 103.784C111.215 103.569 111.305 103.353 111.384 103.149C111.463 102.922 111.565 102.718 111.61 102.48C111.655 102.242 111.779 102.038 111.891 101.822C111.959 101.697 112.015 101.584 112.083 101.459C112.308 101.039 112.421 100.597 112.533 100.143C112.612 99.8369 112.635 99.5193 112.635 99.2017C112.635 98.9295 112.691 98.6799 112.725 98.419C112.759 98.1468 112.804 97.8859 112.838 97.625C112.883 97.3755 112.916 97.1259 112.984 96.8877C113.029 96.7289 113.153 96.6041 113.209 96.4453C113.277 96.2298 113.367 96.037 113.514 95.8441C113.536 95.8101 113.559 95.7647 113.547 95.7194C113.502 95.277 113.716 94.9027 113.953 94.5397C114.043 94.3922 114.088 94.2221 114.156 94.0633C114.212 93.9158 114.246 93.7683 114.336 93.6322C114.494 93.3827 114.595 93.1104 114.561 92.8042C114.561 92.7248 114.584 92.6567 114.606 92.5886C114.663 92.3845 114.775 92.203 114.618 91.9534C114.606 91.9307 114.618 91.9081 114.618 91.8854C114.685 91.3636 114.775 90.8531 114.933 90.3427C114.978 90.1839 115.113 90.0591 115.158 89.9003C115.282 89.4579 115.372 89.0042 115.485 88.5505C115.485 88.5391 115.474 88.5165 115.485 88.5051C115.632 88.4484 115.654 88.335 115.71 88.2329C115.722 88.2102 115.801 88.1988 115.857 88.1875C115.891 88.2215 115.947 88.2556 115.958 88.2896C115.981 88.3463 116.037 88.3577 116.116 88.369C116.296 88.3917 116.51 88.403 116.646 88.4597C116.781 88.5278 116.815 88.6639 116.939 88.766C117.04 88.8567 116.995 88.8908 116.984 88.9475C116.939 89.1517 116.702 89.2991 116.758 89.5487C116.792 89.6961 116.634 89.8323 116.601 89.9684C116.567 90.0932 116.567 90.2179 116.578 90.354C116.601 90.5696 116.555 90.7624 116.432 90.9439C116.364 91.0346 116.398 91.1708 116.364 91.2842C116.33 91.4203 116.263 91.5564 116.217 91.7039C116.15 91.9194 116.15 92.1463 116.161 92.3731C116.161 92.5319 116.15 92.6794 116.06 92.8042C115.891 93.031 115.879 93.2919 115.891 93.5642C115.891 93.6662 115.891 93.7683 115.879 93.8591C115.654 94.6985 115.451 95.5379 115.192 96.3659C115.102 96.6382 114.967 96.8991 114.911 97.194C114.866 97.4208 114.854 97.659 114.809 97.8859C114.787 97.9993 114.708 98.1014 114.651 98.2035C114.629 98.2375 114.606 98.2716 114.618 98.3056C114.663 98.4871 114.46 98.6005 114.539 98.782C114.561 98.8501 114.46 98.9068 114.437 98.9749C114.347 99.2811 114.257 99.576 114.19 99.8823C114.133 100.155 114.066 100.438 114.054 100.722C114.043 101.13 113.874 101.504 113.818 101.913C113.795 102.14 113.705 102.355 113.604 102.559C113.48 102.832 113.48 103.138 113.243 103.365C113.142 103.467 113.176 103.626 113.119 103.75C112.883 104.317 112.669 104.907 112.545 105.509C112.522 105.611 112.533 105.724 112.522 105.826C112.522 105.86 112.522 105.906 112.5 105.94C112.443 106.064 112.376 106.178 112.331 106.303C112.297 106.416 112.184 106.484 112.004 106.518C111.677 106.575 111.474 106.518 111.317 106.28C111.159 106.053 111.148 105.826 111.08 105.611C111.08 105.588 111.08 105.565 111.08 105.543C110.911 105.202 110.967 104.896 111.114 104.544L111.058 104.556Z" fill="#2F1F49"/>
<path d="M111.542 108.764C111.339 109.229 111.17 109.638 111.001 110.035C110.753 110.658 110.483 111.282 110.404 111.963C110.325 112.632 110.055 113.256 109.942 113.925C109.863 114.334 109.762 114.731 109.706 115.139C109.672 115.343 109.706 115.57 109.728 115.786C109.773 116.069 109.649 116.307 109.559 116.546C109.525 116.648 109.458 116.727 109.424 116.829C109.345 117.079 109.154 117.271 108.838 117.408C108.771 117.442 108.658 117.453 108.557 117.442C108.286 117.419 108.207 117.351 108.162 117.192C108.128 117.067 108.05 116.931 108.05 116.806C108.038 116.534 107.881 116.228 108.151 116.024C108.173 116.012 108.196 115.99 108.196 115.967C108.117 115.729 108.376 115.57 108.376 115.354C108.376 115.196 108.41 115.037 108.399 114.878C108.376 114.697 108.433 114.538 108.523 114.39C108.635 114.197 108.737 114.005 108.804 113.8C108.951 113.301 109.086 112.802 109.21 112.303C109.244 112.167 109.233 112.02 109.266 111.883C109.311 111.736 109.39 111.611 109.435 111.464L110.044 109.309C110.168 108.889 110.325 108.481 110.472 108.061C110.528 107.913 110.607 107.777 110.675 107.63C110.72 107.539 110.844 107.528 111.035 107.539C111.238 107.55 111.317 107.63 111.418 107.721C111.542 107.823 111.598 107.925 111.565 108.027C111.542 108.084 111.553 108.163 111.553 108.231C111.553 108.435 111.553 108.639 111.553 108.775L111.542 108.764Z" fill="#2F1F49"/>
<path d="M107.047 118.826C107.114 118.701 107.137 118.553 107.272 118.463C107.407 118.372 107.599 118.315 107.914 118.349C108.286 118.383 108.613 118.463 108.906 118.644C109.277 118.86 109.39 119.2 109.176 119.381C109.12 119.427 109.075 119.483 108.996 119.529C108.894 119.574 108.771 119.631 108.635 119.642C108.387 119.654 108.106 119.642 107.847 119.642C107.61 119.642 107.441 119.563 107.295 119.438C107.058 119.234 106.99 119.041 107.058 118.848L107.047 118.826Z" fill="#2F1F49"/>
<path d="M108.523 121.037C108.399 121.162 108.297 121.332 107.914 121.332H107.486C107.126 121.332 106.889 121.23 106.799 121.015C106.731 120.856 106.664 120.686 106.821 120.572C106.844 120.549 106.878 120.527 106.878 120.493C106.878 120.334 107.081 120.3 107.295 120.289C107.52 120.289 107.779 120.323 108.038 120.425C108.376 120.572 108.579 120.81 108.534 121.026L108.523 121.037Z" fill="#2F1F49"/>
</g>
<defs>
<clipPath id="clip0_8_90">
<rect width="226" height="233" fill="white" transform="translate(0.0517578 0.845215)"/>
</clipPath>
</defs>
</svg>
