<svg xmlns="http://www.w3.org/2000/svg" xmlns:xlink="http://www.w3.org/1999/xlink" width="32" height="32" viewBox="0 0 32 32">
<defs>
<clipPath id="b"><rect width="32" height="32"/></clipPath>
</defs>
<linearGradient id="SVGID_1_" gradientUnits="userSpaceOnUse" x1="-17.426" y1="51.1492" x2="118.2795" y2="82.7663" gradientTransform="matrix(1 0 0 -1 0 127.8898)">
	<stop  offset="0" style="stop-color:#2f1f49"/>
	<stop  offset="1" style="stop-color:#2f1f49"/>
	<stop  offset="1" style="stop-color:#2f1f49"/>
</linearGradient>
<g id="a" clip-path="url(#b)"><g transform="translate(0 -0.319)"><path d="M49.811,21.1A15.977,15.977,0,0,1,37.3,32.375V27.822a7.594,7.594,0,0,0,2.841-1.907,7.346,7.346,0,0,0,1.116-1.565,7.421,7.421,0,0,0,.865-3.516c0-4.026-2.906-5.634-5.63-6.828l-1.379-.61c-1.475-.662-2.6-1.25-2.6-2.257A2.217,2.217,0,0,1,34.871,9a2.731,2.731,0,0,1,2.642,1.717l.566.982,3.645-2.339-.476-.882a7.08,7.08,0,0,0-3.948-3.4V.9c.355.061.7.138,1.059.229l.112.026a.92.92,0,0,1,.117.03.134.134,0,0,1,.035.009c.1.026.195.048.294.078A16,16,0,0,1,49.811,21.1Z" transform="translate(-18.452 -0.227)"/><path d="M19.195,20.7a3.1,3.1,0,0,1-3.187,2.966,3.214,3.214,0,0,1-3.092-2.927l-.173-1.224L8.333,20.759l.2.986a7.471,7.471,0,0,0,5.639,6.019v4.406a16.1,16.1,0,0,1-2.318-.445c-.108-.026-.212-.056-.32-.086A16.009,16.009,0,0,1,0,16.284V.911A.632.632,0,0,1,.631.28H14.17v4.4A6.484,6.484,0,0,0,10.4,7.605a6.172,6.172,0,0,0-.813,3.1v.086c.043,3.589,2.681,5.09,5.172,6.218L16,17.551l.1.048C18.079,18.5,19.195,19.094,19.195,20.7Z" transform="translate(0 0.125)"/><g transform="translate(8.333 0.392)"></g></g></g>
</svg>